<svg width="2824" height="1770" viewBox="0 0 2824 1770" fill="none" xmlns="http://www.w3.org/2000/svg">
<path d="M822.733 31.4946C833.991 30.812 884.891 30.8951 909.995 31.4916C913.714 31.58 916.867 31.6804 919.241 31.7905C919.835 31.818 920.379 31.8456 920.872 31.8744C922.204 31.9523 923.536 32.0336 924.868 32.1176C925.186 32.1377 925.503 32.1587 925.82 32.1791C926.976 32.2533 928.132 32.3299 929.287 32.4086C929.391 32.4157 929.495 32.4229 929.6 32.4301C988.112 36.4388 1046.04 46.337 1101.99 61.8627C1131.12 69.9002 1159.64 79.4163 1187.23 90.3442C1193.15 92.6885 1199.06 95.1042 1204.96 97.5834C1240.73 112.516 1275.29 129.684 1307.9 148.735C1310.71 150.367 1313.48 152.006 1316.23 153.655C1318.93 155.273 1322.19 157.283 1325.71 159.489C1340.67 168.843 1359.5 181.216 1361.23 182.95C1361.38 183.094 1361.69 183.357 1362.14 183.721C1364.29 185.439 1370.01 189.723 1376.23 194.253C1388.62 203.268 1400.25 212.066 1411.33 220.82C1413.76 222.686 1416.01 224.413 1417.79 225.765C1425.36 231.545 1434.54 239.252 1444.37 247.984C1444.34 247.885 1444.36 247.831 1444.42 247.83C1444.7 247.83 1445.74 248.73 1446.73 249.83C1447.08 250.21 1447.37 250.566 1447.6 250.869C1449.83 252.877 1452.1 254.933 1454.37 257.025C1454.36 256.994 1454.35 256.967 1454.34 256.944C1454.32 256.883 1454.33 256.844 1454.36 256.833C1454.37 256.831 1454.38 256.831 1454.38 256.831L1454.45 256.843C1454.82 256.971 1456.02 258.041 1457.23 259.331C1457.72 259.846 1458.14 260.327 1458.46 260.726C1458.53 260.819 1458.6 260.908 1458.66 260.992C1461.59 263.716 1464.54 266.488 1467.47 269.289C1467.82 269.622 1468.17 269.954 1468.52 270.287C1468.49 270.233 1468.46 270.184 1468.44 270.139C1468.4 270.091 1468.38 270.049 1468.36 270.011C1468.29 269.894 1468.28 269.831 1468.33 269.831C1468.34 269.831 1468.36 269.837 1468.38 269.845C1468.39 269.836 1468.4 269.831 1468.42 269.831C1468.7 269.831 1469.74 270.731 1470.73 271.831C1470.77 271.876 1470.81 271.922 1470.85 271.967C1470.96 272.069 1471.07 272.171 1471.18 272.278C1471.67 272.756 1472.2 273.281 1472.73 273.831C1474.34 275.481 1475.61 276.906 1476.03 277.515C1476.03 277.518 1476.03 277.52 1476.03 277.523C1477.16 278.622 1478.28 279.726 1479.4 280.834C1479.41 280.833 1479.42 280.831 1479.42 280.831C1479.7 280.831 1480.74 281.731 1481.73 282.831C1482.23 283.38 1482.63 283.88 1482.86 284.243C1482.88 284.27 1482.9 284.297 1482.91 284.323C1485.4 286.809 1487.88 289.319 1490.35 291.858C1490.36 291.851 1490.37 291.846 1490.38 291.841C1490.39 291.836 1490.41 291.833 1490.42 291.831C1490.46 291.823 1490.51 291.826 1490.56 291.841C1490.92 291.941 1491.54 292.539 1492.36 293.581C1492.94 294.325 1493.25 294.727 1493.24 294.817C1493.24 294.822 1493.24 294.825 1493.23 294.829C1497.95 299.718 1502.67 304.714 1507.39 309.837C1507.44 309.821 1507.5 309.823 1507.56 309.841C1507.92 309.941 1508.54 310.539 1509.36 311.581C1509.98 312.373 1510.28 312.779 1510.23 312.831C1510.23 312.837 1510.21 312.838 1510.2 312.833C1510.18 312.829 1510.16 312.819 1510.13 312.803C1510.12 312.799 1510.11 312.793 1510.1 312.788C1512.23 315.108 1514.35 317.454 1516.49 319.83C1516.51 319.831 1516.53 319.834 1516.56 319.841C1516.92 319.941 1517.54 320.539 1518.36 321.581C1518.98 322.373 1519.28 322.779 1519.23 322.831C1519.22 322.842 1519.2 322.835 1519.15 322.813C1520.89 324.772 1522.68 326.823 1524.51 328.954C1533.43 339.042 1540.42 347.306 1542.09 349.867C1542.49 350.495 1543.8 352.255 1545.61 354.654C1555.51 367.197 1565.58 380.583 1574.64 393.331C1580.5 401.58 1586.26 409.456 1587.44 410.831C1587.9 411.36 1588.43 412.045 1589.05 412.868C1596.99 423.154 1612.1 447.72 1626.46 473.151C1629.77 478.954 1632.84 484.468 1635.44 489.331C1635.94 490.259 1636.42 491.164 1636.89 492.045C1640.89 499.474 1644.65 506.686 1647.97 513.331C1648.51 514.414 1649.45 516.428 1650.76 519.269C1656.57 531.489 1663.53 547.229 1676.9 577.711C1689.83 607.201 1704.46 640.555 1709.41 651.831C1714.36 663.105 1719.46 674.805 1720.76 677.831C1722.44 681.77 1724.2 685.887 1726.01 690.083C1730.25 699.832 1734.51 709.615 1738.72 719.331C1739.44 720.989 1740.16 722.638 1740.88 724.269C1745.65 735.134 1749.85 744.61 1752.6 750.658C1753.87 753.444 1754.89 755.628 1755.57 757.014C1755.66 757.194 1755.74 757.337 1755.8 757.439C1758.02 761.314 1775.15 799.808 1784.9 822.831C1785.59 824.463 1786.24 825.987 1786.84 827.417C1790.25 835.224 1792.97 841.444 1794.24 844.331C1797.2 851.027 1807.96 875.608 1820.31 903.836C1829.2 924.133 1839.23 947.063 1847.82 966.725C1856.6 986.828 1863.56 1002.76 1865.75 1007.83C1867.96 1012.93 1870.13 1017.92 1872.25 1022.81C1877.88 1035.74 1885.03 1052.12 1891.46 1066.83C1891.54 1067.03 1891.63 1067.23 1891.71 1067.43C1909.69 1108.41 1921.54 1134.69 1922.3 1135.08C1922.77 1134.21 1927.42 1123.33 1933.6 1108.69C1942.67 1087.06 1957.8 1050.67 1981.18 994.331C1987.12 980.03 2002.56 942.905 2015.5 911.831C2028.44 880.756 2040.48 851.731 2042.26 847.331C2043.81 843.48 2046.07 838.175 2047.62 834.699L2048.85 831.962C2050.4 828.486 2052.64 823.181 2054.19 819.331C2054.61 818.275 2055.03 817.237 2055.44 816.215C2057.42 811.311 2059.24 806.828 2060.88 802.865C2061.04 802.476 2061.19 802.092 2061.35 801.713C2062.43 799.09 2063.43 796.711 2064.32 794.606C2067.1 787.997 2068.87 784.066 2069.2 783.831C2069.43 783.665 2073.02 775.377 2078.33 762.813C2079.84 759.23 2081.51 755.257 2083.32 750.95C2085.62 745.451 2088.1 739.512 2090.67 733.331C2095.03 722.837 2101.27 707.83 2108.33 690.837C2111.17 683.975 2114.08 676.946 2117.01 669.831C2119.83 663.001 2131.04 636.115 2143.45 606.426C2143.89 605.387 2144.32 604.355 2144.74 603.331C2163.06 559.331 2179.12 520.631 2180.43 517.331C2186.83 501.212 2198.55 473.241 2208.47 450.041C2215.91 432.276 2221.74 418.288 2222.63 416.082C2223.79 413.197 2225.07 410.833 2225.47 410.832C2225.54 410.833 2225.8 410.985 2226.22 411.269C2227.95 412.267 2234.7 417.375 2259.89 436.917C2261.56 438.031 2276.8 449.795 2294.98 464.02C2314.09 478.974 2335.54 495.737 2342.64 501.27C2349.41 506.547 2357.29 512.843 2360.68 515.668C2363.63 518.033 2365.56 519.612 2366.21 520.194C2371.05 524.086 2378.16 529.73 2384.94 535.053C2391.4 540.117 2397.11 544.818 2400.36 547.697C2401.76 548.932 2402.71 549.841 2403.05 550.293C2403.07 550.318 2403.09 550.34 2403.1 550.362C2403.1 550.367 2403.11 550.372 2403.11 550.377C2403.16 550.456 2403.19 550.514 2403.19 550.552C2403.19 550.568 2403.18 550.604 2403.17 550.659C2402.84 551.817 2398.7 561.501 2390.7 579.815C2384.7 593.57 2377 611.107 2368.62 630.052C2367.31 633.017 2365.94 636.118 2364.51 639.338C2358.1 653.871 2350.88 670.202 2342.85 688.339C2327.22 723.68 2310.28 761.981 2297.97 789.831C2280.32 829.743 2264.55 865.155 2260.24 874.574C2190.83 1030.97 2146.65 1130.65 2121.11 1188.5C2104.64 1225.86 2092.81 1252.91 2092.25 1254.58C2092.24 1254.62 2092.23 1254.65 2092.23 1254.66L2092.23 1254.76C2092.22 1254.87 2092.2 1254.97 2092.17 1255.08C2092.14 1255.14 2092.12 1255.21 2092.09 1255.28C2092.02 1255.41 2091.95 1255.53 2091.85 1255.64C2091.76 1255.75 2091.66 1255.84 2091.54 1255.91C2091.49 1255.94 2091.43 1255.97 2091.37 1256C2091.27 1256.04 2090.41 1257.82 2088.95 1260.94C2088.59 1261.72 2088.19 1262.58 2087.76 1263.53C2084.72 1270.11 2080.03 1280.48 2074.66 1292.43C2063.93 1316.32 2050.5 1346.54 2042.21 1365.52C2040.44 1369.58 2038.9 1373.13 2037.67 1375.99C2036.45 1378.85 2035.53 1381.02 2035.01 1382.33L2032.61 1388.33L2003.67 1388.94C1987.76 1389.28 1939.16 1389.62 1895.68 1389.69L1816.63 1389.83L1814.53 1384.08C1814.36 1383.63 1813.84 1382.41 1813.02 1380.52C1803.37 1358.47 1751.86 1245.41 1735.69 1210.74C1734.74 1208.73 1734.06 1207.34 1733.71 1206.64C1731.82 1202.97 1728.29 1195.54 1725.88 1190.14C1725.27 1188.79 1724.23 1186.5 1722.88 1183.52C1720.57 1178.52 1718.14 1173.23 1715.92 1168.33C1714.54 1165.3 1712.8 1161.48 1710.83 1157.15C1706.09 1146.77 1700.66 1134.86 1694.58 1121.5C1692.73 1117.46 1690.94 1113.52 1689.25 1109.83C1680.33 1090.31 1670.2 1068.03 1666.73 1060.33C1665.05 1056.6 1659.56 1044.5 1652 1027.86C1642.6 1007.19 1632.06 984.02 1622.31 962.597C1601.35 916.544 1583.8 877.826 1583.32 876.556C1583.29 876.484 1583.26 876.409 1583.23 876.329C1582.57 874.863 1582.12 873.847 1581.9 873.331C1580.38 869.805 1578.71 866.004 1577.04 862.273C1572.34 851.958 1566.75 840.131 1566.33 839.845C1566.25 839.792 1566.06 839.493 1565.78 838.984C1565.26 838.13 1564.53 836.766 1563.86 835.331C1563.63 834.841 1563.16 833.819 1562.49 832.348C1561.24 829.738 1559.8 826.63 1558.3 823.331C1555.91 818.069 1550.19 805.497 1543.36 790.476C1533.14 768.061 1521.77 743.104 1515.99 730.331C1513.81 725.533 1511.65 720.777 1509.52 716.065C1496.95 688.421 1481.85 655.227 1469.18 627.331C1466.75 621.991 1464.37 616.757 1462.05 611.676C1452.24 590.171 1444.23 572.668 1438.77 560.828C1433.98 550.468 1431.03 544.164 1430.78 543.831C1430.16 543.006 1429.05 541.136 1428.32 539.677C1428.32 539.667 1428.31 539.656 1428.31 539.645C1427.43 537.928 1422.21 530.687 1416.41 522.918C1410.27 514.778 1403.21 505.759 1398.89 500.672C1397.34 498.974 1394.77 496.081 1392 492.907C1388.78 489.278 1385.1 485.108 1382.26 481.831C1380.33 479.608 1378.34 477.366 1376.3 475.111C1369.94 468.153 1363.22 461.137 1356.27 454.176C1355.31 453.352 1353.71 451.827 1351.97 450.072C1351.96 450.06 1351.95 450.048 1351.94 450.036C1351.54 449.646 1351.14 449.243 1350.73 448.831C1349.92 448.005 1349.15 447.218 1348.47 446.5C1348.38 446.405 1348.29 446.31 1348.2 446.217C1343.18 441.348 1338.08 436.528 1332.93 431.797C1332.92 431.794 1332.91 431.793 1332.91 431.789C1332.51 431.602 1331.6 430.793 1330.73 429.831C1330.68 429.774 1330.63 429.716 1330.58 429.661C1312.78 413.572 1294.04 398.234 1276.1 385.243C1271.35 381.796 1266.95 378.518 1264.29 376.448C1263.71 376 1263.22 375.607 1262.82 375.282C1262.21 374.79 1261.82 374.453 1261.7 374.306C1261.7 374.301 1261.7 374.297 1261.69 374.291C1261.02 373.717 1259.6 372.672 1257.7 371.337C1254.95 369.421 1251.11 366.825 1247.19 364.22C1240.67 359.92 1233.79 355.54 1230.56 353.735C1229.31 353.159 1223.69 349.984 1216.96 346.053C1214.62 344.719 1212.16 343.315 1209.73 341.924C1200.31 336.517 1190.77 331.348 1181.12 326.413C1131.8 301.32 1078.55 281.931 1023.87 269.12C996.974 262.883 969.468 258.164 941.398 254.977C928.513 253.578 915.617 252.556 902.728 251.911C888.011 251.444 868.202 251.333 851.092 251.575C848.794 251.607 846.544 251.646 844.362 251.691C841.904 251.742 839.532 251.802 837.272 251.87C823.293 252.554 809.357 253.682 795.486 255.253C758.987 259.557 724.85 266.258 691.508 275.755C689.296 276.385 687.089 277.027 684.884 277.682C669.619 282.214 654.5 287.342 639.375 293.104C619.624 300.709 599.039 309.737 579.733 319.22C567.477 325.326 554.846 332.002 544.887 337.683C542.793 338.888 540.741 340.091 538.733 341.289C523.261 350.521 491.534 371.525 490.479 373.234C490.068 373.897 484.333 378.538 477.733 383.546C473.26 386.941 468.853 390.367 464.509 393.827L462.733 395.331L462.93 395.098C449.204 406.243 434.327 419.171 421.233 431.399C420.902 431.708 420.553 432.029 420.194 432.362C405.158 446.664 390.964 461.552 377.512 477.13C367.824 488.534 358.035 500.62 350.363 510.831C349.034 512.6 347.71 514.385 346.391 516.186C338.411 527.081 330.627 538.549 323.12 550.426C323.122 550.432 323.126 550.436 323.128 550.442C323.266 550.811 322.956 551.504 322.357 552.098C322.11 552.343 321.917 552.519 321.776 552.623C321.751 552.642 321.726 552.658 321.704 552.672C293.349 597.94 269.083 648.946 253.501 696.702C252.559 699.59 251.647 702.467 250.769 705.331C250.263 706.981 249.742 708.64 249.234 710.227C248.474 712.607 247.742 714.824 247.133 716.6C246.727 717.784 246.374 718.772 246.104 719.483C245.968 719.838 245.854 720.124 245.763 720.331C245.11 721.808 244.297 724.258 243.377 727.45C243.009 728.726 242.623 730.121 242.224 731.621C241.824 733.12 241.41 734.724 240.985 736.416C240.135 739.802 239.241 743.543 238.328 747.525C237.187 752.501 236.018 757.852 234.869 763.346C234.41 765.544 233.954 767.765 233.504 769.995C232.604 774.453 231.731 778.944 230.909 783.35C230.498 785.553 230.101 787.735 229.719 789.881C228.573 796.32 227.572 802.436 226.803 807.831C225.536 816.707 224.528 824.258 223.728 831.244C223.128 836.483 222.645 841.404 222.259 846.327C221.808 852.07 221.487 857.816 221.265 864.073C221.201 865.86 221.145 867.69 221.097 869.573C221.024 872.397 220.968 875.342 220.925 878.448C220.896 880.518 220.873 882.66 220.855 884.885C220.821 889.336 220.808 894.119 220.809 899.331C220.81 905.346 220.839 910.948 220.904 916.233C220.97 921.518 221.071 926.485 221.216 931.233C221.688 946.661 222.624 959.762 224.302 973.865C224.56 976.034 224.836 978.227 225.13 980.456C225.865 986.03 226.717 991.826 227.7 998.037C228.262 1001.59 228.868 1005.27 229.52 1009.13C229.779 1010.67 230.046 1012.24 230.32 1013.83C232.55 1026.78 236.223 1043.98 239.51 1057.72C242.573 1070.47 245.305 1080.18 246.275 1080.83C246.637 1081.07 247.343 1082.77 247.944 1084.79C248.03 1085.08 248.114 1085.38 248.194 1085.68C248.293 1086.04 248.394 1086.42 248.498 1086.79C248.534 1086.92 248.57 1087.05 248.606 1087.18C249.225 1089.01 249.914 1091.12 250.609 1093.33C255.303 1108.28 260.985 1124.14 267.173 1139.73C269.995 1146.79 272.932 1153.87 275.87 1160.69C281.47 1173.6 287.279 1185.93 292.996 1196.93C312.724 1234.9 336.256 1271.02 362.795 1304.27C385.634 1332.72 410.909 1359.35 438.223 1383.74C438.266 1383.78 438.309 1383.82 438.352 1383.86C438.623 1383.68 439.345 1384.28 440.361 1385.58C440.407 1385.64 440.45 1385.69 440.492 1385.75C456.275 1399.63 472.228 1412.47 488.54 1424.39C495.666 1429.58 502.899 1434.63 510.233 1439.52C513.627 1441.78 516.905 1443.94 520.097 1446.01C541.625 1459.81 563.937 1472.24 587.428 1483.54C588.539 1484.07 589.663 1484.61 590.801 1485.14C596.582 1487.86 602.44 1490.52 608.32 1493.11C620.215 1498.26 632.499 1503.25 644.383 1507.74C656.755 1512.36 669.226 1516.67 679.773 1519.96C681.988 1520.63 684.144 1521.27 686.233 1521.86C687.93 1522.34 689.56 1522.82 691.043 1523.28C691.793 1523.48 692.524 1523.68 693.233 1523.86C695.708 1524.51 697.958 1525.37 698.233 1525.77C698.282 1525.84 698.391 1525.92 698.556 1526.01C700.838 1526.98 714.538 1530.44 727.306 1533.38C738.229 1535.74 750.452 1538.14 760.625 1539.83C764.263 1540.44 767.842 1541.01 771.375 1541.54C779.395 1542.72 787.825 1543.85 796.067 1544.85C809.284 1546.36 822.185 1547.4 835.438 1548.01C843.432 1548.2 853.515 1548.27 868.233 1548.28C884.218 1548.29 897.491 1548.09 909.572 1547.57C935.715 1546.17 958.351 1543.34 986.233 1538.24C994.066 1536.81 1005.62 1534.31 1015.84 1531.94C1027.71 1529.19 1037.77 1526.6 1038.17 1526.03C1038.19 1526 1038.21 1525.98 1038.24 1525.96C1038.23 1525.94 1038.23 1525.91 1038.23 1525.89C1038.23 1525.82 1038.24 1525.75 1038.25 1525.68C1038.27 1525.61 1038.29 1525.54 1038.31 1525.48C1038.43 1525.19 1038.66 1524.97 1038.94 1524.88C1039.03 1524.85 1039.13 1524.83 1039.23 1524.83L1039.43 1524.84C1039.76 1524.87 1040.03 1524.97 1040.15 1525.1L1040.16 1525.1C1041.36 1524.68 1043 1524.22 1044.73 1523.82C1044.77 1523.81 1044.8 1523.8 1044.84 1523.79C1051.63 1521.93 1090.42 1509.35 1095.28 1507.39C1095.4 1507.35 1095.53 1507.33 1095.68 1507.36L1096.44 1507.11L1097.9 1509.13C1099.41 1510.82 1101.58 1513.82 1104.74 1518.5C1105.64 1519.83 1106.55 1521.17 1107.46 1522.5C1109.43 1525.27 1111.54 1528.24 1113.48 1530.99C1113.79 1531.43 1114.1 1531.87 1114.41 1532.31C1116.78 1535.56 1119.37 1539.06 1121.83 1542.33C1128.25 1550.9 1134.87 1559.28 1141.68 1567.47C1150.26 1577.71 1159.35 1587.89 1168.76 1597.84C1169.07 1598.13 1169.41 1598.47 1169.73 1598.83C1169.84 1598.95 1169.94 1599.06 1170.04 1599.17C1176.99 1606.48 1184.12 1613.66 1191.36 1620.64C1191.43 1620.71 1191.5 1620.78 1191.57 1620.85C1191.61 1620.86 1191.64 1620.87 1191.68 1620.89C1192 1621.05 1192.5 1621.52 1193.12 1622.28C1193.17 1622.33 1193.21 1622.39 1193.25 1622.44C1207.91 1636.36 1223.25 1649.67 1239.15 1662.22C1241.26 1663.87 1243.38 1665.52 1245.51 1667.16C1246.66 1668.04 1247.76 1668.9 1248.81 1669.73C1249.44 1670.23 1250.06 1670.71 1250.65 1671.18C1251.11 1671.52 1251.58 1671.86 1252.04 1672.2C1253.46 1673.24 1254.72 1674.29 1255.61 1675.15C1257.2 1676.46 1258.11 1677.26 1258.04 1677.32C1256.93 1678.29 1243.65 1684.37 1228 1691.25C1227.95 1691.28 1227.9 1691.3 1227.85 1691.32C1213.18 1697.9 1195.94 1705.28 1183.65 1710.1C1182.46 1710.57 1181.32 1711.01 1180.23 1711.43C1177.4 1712.51 1174.67 1713.68 1173.05 1714.51C1172.31 1714.88 1171.79 1715.19 1171.6 1715.37C1170.97 1715.97 1158.82 1720.34 1144.6 1725.09C1141.54 1726.11 1138.47 1727.11 1135.39 1728.1C1046.22 1756.74 953.267 1770.61 860.251 1769.67C859.714 1769.66 859.178 1769.66 858.642 1769.65C857.865 1769.64 857.088 1769.63 856.311 1769.62C775.611 1768.46 694.989 1756.17 617.056 1732.71C616.977 1732.69 616.899 1732.67 616.82 1732.64C616.772 1732.63 616.723 1732.61 616.675 1732.6C616.418 1732.52 616.16 1732.44 615.903 1732.37C596.827 1726.59 573.903 1718.78 567.165 1715.86C566.043 1715.39 565.364 1715.06 565.233 1714.9C564.999 1714.61 561.851 1713.27 557.857 1711.73C557.67 1711.66 557.479 1711.59 557.283 1711.52C556.777 1711.32 556.259 1711.13 555.733 1710.93C545.421 1707.09 534.284 1702.52 522.7 1697.43C482.404 1679.93 441.985 1658.52 404.784 1634.9C404.078 1634.45 403.381 1634.01 402.7 1633.59C398.325 1630.88 394.589 1628.59 392.396 1627.27C391.894 1626.99 391.593 1626.83 391.532 1626.83C391.346 1626.83 390.077 1626.04 388.049 1624.69C383.212 1621.63 373.885 1615.06 363.449 1607.47C357.712 1603.35 352.101 1599.26 347.733 1595.99C342.326 1591.93 337.129 1587.95 332.062 1583.97C328.992 1581.59 326.174 1579.37 323.733 1577.41C315.507 1570.77 307.14 1563.66 298.403 1555.86C286.893 1545.63 275.122 1534.51 262.071 1521.59C262.107 1521.64 262.136 1521.68 262.155 1521.72C262.195 1521.79 262.199 1521.83 262.165 1521.83C262.061 1521.83 261.622 1521.48 260.955 1520.89C260.733 1520.69 260.485 1520.46 260.216 1520.22C259.141 1519.22 257.727 1517.84 256.233 1516.33C255.487 1515.57 254.788 1514.85 254.164 1514.19C253.852 1513.87 253.558 1513.55 253.287 1513.26C252.474 1512.38 251.86 1511.68 251.536 1511.26C251.321 1510.99 251.233 1510.83 251.301 1510.83C251.308 1510.83 251.316 1510.83 251.326 1510.84C245.969 1505.43 240.42 1499.76 234.651 1493.8C233.411 1492.51 232.176 1491.22 230.941 1489.92C230.836 1489.84 230.732 1489.76 230.632 1489.68C229.837 1489.02 229.233 1488.39 229.233 1488.21C229.233 1488.18 229.236 1488.15 229.238 1488.13C228.983 1487.86 228.726 1487.59 228.472 1487.32C227.892 1486.7 227.316 1486.08 226.738 1485.47C226.489 1485.2 226.239 1484.93 225.99 1484.67C225.743 1484.4 225.494 1484.14 225.247 1483.87C225.156 1483.77 225.066 1483.67 224.976 1483.58C202.049 1458.9 180.12 1431.64 159.605 1402.47C159.215 1401.91 158.822 1401.36 158.433 1400.8C158.027 1400.22 157.624 1399.64 157.22 1399.06C156.68 1398.28 156.138 1397.51 155.601 1396.73C155.359 1396.38 155.119 1396.03 154.877 1395.68C154.126 1394.59 153.376 1393.5 152.63 1392.4C152.583 1392.33 152.536 1392.26 152.489 1392.19C150.732 1389.62 148.986 1387.02 147.252 1384.42C147.076 1384.16 146.901 1383.89 146.726 1383.63C145.997 1382.53 145.27 1381.43 144.546 1380.33C144.323 1379.99 144.102 1379.65 143.88 1379.31C143.155 1378.21 142.432 1377.1 141.712 1375.99C141.63 1375.87 141.549 1375.74 141.467 1375.61C140.669 1374.38 139.873 1373.15 139.08 1371.91C138.932 1371.68 138.784 1371.45 138.636 1371.22C137.893 1370.06 137.153 1368.9 136.415 1367.73C136.251 1367.47 136.087 1367.21 135.923 1366.95C135.281 1365.94 134.64 1364.92 134.002 1363.9C133.658 1363.35 133.315 1362.8 132.973 1362.25C132.48 1361.46 131.989 1360.67 131.499 1359.88C131.114 1359.25 130.73 1358.63 130.347 1358.01C129.845 1357.19 129.344 1356.38 128.845 1355.56C128.464 1354.93 128.083 1354.31 127.704 1353.69C127.358 1353.12 127.013 1352.55 126.669 1351.98C126.078 1351 125.488 1350.02 124.9 1349.04C124.743 1348.78 124.587 1348.51 124.43 1348.25C101.581 1310.04 81.2308 1269.55 64.1611 1227.99C61.5356 1221.6 59.2959 1215.77 58.5225 1213.37C57.998 1212.04 57.4824 1211.02 57.2021 1210.83C56.598 1210.42 54.2899 1204.47 51.2353 1195.83C46.2236 1181.81 39.2147 1160.45 34.1416 1143.35C33.2838 1140.48 32.4987 1137.78 31.8115 1135.33C30.6319 1131.13 29.4876 1126.93 28.3769 1122.73C28.3292 1122.55 28.282 1122.37 28.2344 1122.19C28.0665 1121.55 27.8997 1120.91 27.7334 1120.28C15.768 1074.53 7.68153 1027.9 3.46972 980.349C2.59657 970.877 1.83955 961.22 1.1914 951.331C1.12685 950.345 1.06812 949.267 1.00976 948.104C0.728335 942.55 0.516259 935.162 0.376948 926.842C0.369074 926.556 0.360136 926.27 0.352534 925.984C-0.134338 907.658 -0.117959 889.6 0.408198 871.762C0.577898 861.958 0.842055 853.474 1.20214 847.831C1.48301 843.428 1.79122 839.051 2.125 834.699C3.21307 820.349 4.60192 806.228 6.30078 792.283C6.34431 791.921 6.3896 791.559 6.43359 791.198C6.4913 790.729 6.54901 790.26 6.60742 789.791C10.9108 754.897 17.3343 720.592 25.9316 686.476C25.9751 686.304 26.018 686.131 26.0615 685.958C26.2865 685.068 26.5133 684.178 26.7412 683.288C26.8235 682.966 26.9066 682.645 26.9893 682.324C28.0069 678.368 29.0536 674.416 30.1299 670.464C30.1875 670.253 30.2459 670.042 30.3037 669.831C32.3913 662.189 34.5858 654.553 36.8936 646.919C37.3663 645.356 37.8728 643.715 38.4033 642.016C38.7828 640.788 39.1654 639.559 39.5508 638.331C40.6671 634.771 42.0467 630.562 43.5371 626.125C49.5934 607.89 56.201 589.507 57.1406 588.831C57.2842 588.726 57.7865 587.713 58.5283 586.067C59.7635 583.321 61.6622 578.815 63.668 573.831C70.7061 556.338 78.3809 538.99 86.6416 521.872C90.7015 513.26 94.552 505.379 97.6943 499.331C108.978 477.61 122.023 455.141 135.874 433.408C142.765 422.563 149.886 411.896 157.218 401.428C164.114 391.566 171.084 382.041 178.025 373.018C179.799 370.701 181.582 368.394 183.377 366.101C186.484 362.133 189.707 357.985 192.28 354.654C193.751 352.702 194.893 351.147 195.471 350.295C196.379 348.957 197.809 347.117 199.26 345.388C199.289 345.352 199.316 345.316 199.345 345.282C199.5 345.091 199.648 344.919 199.787 344.765C199.797 344.754 199.807 344.744 199.816 344.733C200.584 343.837 201.336 342.993 202.004 342.295C204.093 340.114 211.368 332.03 218.171 324.331C229.068 311.997 251.098 289.563 270.316 270.881C281.055 260.429 290.866 251.198 297.233 245.696C298.007 245.027 298.783 244.361 299.558 243.696C299.756 243.525 299.954 243.354 300.152 243.184C300.6 242.8 301.047 242.416 301.495 242.034C309.652 235.056 317.842 228.27 326.07 221.67C355.811 197.736 385.064 176.98 415.779 158.084C440.086 143.041 464.915 129.37 490.434 116.981C492.684 115.885 494.941 114.8 497.201 113.724C510.986 107.072 523.869 101.335 537.841 95.6772C538.305 95.4854 538.769 95.292 539.233 95.101C546.176 92.2474 552.336 89.8287 559.987 87.0053C577.69 80.2896 595.756 74.0939 614.233 68.391C673.141 50.2095 733.692 38.6706 799.152 33.1938C799.245 33.186 799.338 33.1781 799.431 33.1703C800.631 33.0703 801.833 32.9724 803.036 32.8764C803.13 32.8689 803.223 32.8623 803.316 32.8549C804.401 32.7687 805.487 32.6839 806.574 32.601C806.908 32.5755 807.243 32.55 807.577 32.5248C808.401 32.4628 809.226 32.4014 810.052 32.3412C810.538 32.3058 811.025 32.2706 811.513 32.2358C812.367 32.1747 813.223 32.1151 814.079 32.0561C814.443 32.031 814.806 32.0056 815.17 31.9809C816.128 31.9158 817.088 31.853 818.049 31.7905C818.35 31.7709 818.65 31.7502 818.951 31.7309C820.21 31.65 821.471 31.5711 822.733 31.4946Z" fill="#0083CB"/>
<path d="M1910.81 0.364674C1926.51 -0.300826 1993.31 -0.00667363 2006.75 0.851979C2008.32 0.952454 2009.93 1.06178 2011.58 1.17815C2011.58 1.1689 2011.58 1.15967 2011.58 1.15081C2011.63 1.02324 2012 0.936597 2012.65 0.909596C2013.57 0.871998 2014.14 1.04797 2014.04 1.31487C2014.04 1.32873 2014.03 1.34155 2014.02 1.35588C2019.94 1.79252 2026.24 2.31985 2032.62 2.90862C2046.48 4.17728 2060.79 5.7454 2072.65 7.32073C2075.51 7.69858 2078.22 8.0757 2080.73 8.44768C2102.37 11.6457 2124.15 15.5898 2126.73 16.7778C2127.83 17.2849 2133.46 18.6586 2139.23 19.8315C2175.1 27.1165 2225.53 42.1514 2269.23 58.5864C2283.91 64.1076 2300.52 71.2178 2317.64 79.2075C2350 94.1344 2382.41 111.534 2411.73 129.817C2416.64 132.876 2421.44 135.814 2424.62 137.726C2425.75 138.397 2426.68 138.948 2427.36 139.338C2427.75 139.564 2428.05 139.73 2428.23 139.826C2428.4 139.91 2428.66 140.067 2429.02 140.286C2429.05 140.297 2429.08 140.306 2429.12 140.319C2429.44 140.436 2429.82 140.61 2430.23 140.83C2431.26 141.383 2432.12 142.038 2432.22 142.344C2432.23 142.356 2432.23 142.368 2432.23 142.378C2432.96 142.868 2433.77 143.414 2434.65 144.008C2438.55 146.612 2443.31 149.874 2447.72 153.003C2455.73 158.683 2464.41 164.828 2467.01 166.661C2471.44 169.782 2476.49 173.524 2480.63 176.706C2482.47 178.119 2484.13 179.424 2485.48 180.516C2485.88 180.845 2486.26 181.156 2486.61 181.444C2487.5 182.187 2488.17 182.78 2488.57 183.176C2488.86 183.472 2489.46 184.013 2490.29 184.737C2491.12 185.46 2492.19 186.366 2493.41 187.392C2495.85 189.445 2498.92 191.98 2502.04 194.502C2525.63 213.588 2559.51 245.261 2586.42 272.831C2586.46 272.823 2586.51 272.826 2586.56 272.841C2586.92 272.942 2587.54 273.54 2588.36 274.581C2588.75 275.076 2589.01 275.42 2589.14 275.622C2589.15 275.636 2589.16 275.65 2589.17 275.663C2594.57 281.245 2599.67 286.63 2604.29 291.678C2608.98 296.781 2613.21 301.546 2616.83 305.831C2620.46 310.127 2624.12 314.544 2627.67 318.885C2627.71 318.905 2627.76 318.931 2627.81 318.961C2628.18 319.199 2628.71 319.748 2629.36 320.581C2629.98 321.373 2630.28 321.779 2630.23 321.831C2630.23 321.837 2630.21 321.838 2630.2 321.833C2630.16 321.824 2630.1 321.793 2630.02 321.741C2630.01 321.73 2629.99 321.717 2629.97 321.705C2640.34 334.459 2649.4 346.183 2653.15 351.802C2653.34 352.093 2653.58 352.44 2653.85 352.837C2654.53 353.802 2655.17 354.703 2655.73 355.532C2657.08 357.499 2659.45 360.936 2662.2 364.917C2663.89 367.35 2665.67 369.884 2667.39 372.331C2681.66 392.615 2694.7 412.997 2706.93 434.168C2717.51 452.41 2727.35 471.03 2736.49 490.062C2744.09 505.595 2746.6 511.195 2753.75 528.5C2754.43 530.108 2755.1 531.718 2755.76 533.331C2756.06 534.053 2756.35 534.764 2756.64 535.461C2758.87 540.805 2760.86 545.296 2761.77 547.05C2762.01 547.508 2762.17 547.779 2762.25 547.831C2762.97 548.322 2767.27 559.447 2772.11 572.916C2772.26 573.349 2772.42 573.783 2772.57 574.219C2772.64 574.414 2772.71 574.61 2772.78 574.806C2775.66 582.836 2778.64 591.452 2781.04 598.831C2781.1 598.993 2781.15 599.155 2781.2 599.316C2781.31 599.656 2781.43 599.994 2781.54 600.331C2782.09 602.033 2782.64 603.737 2783.18 605.441C2787.26 618.144 2790.29 628.315 2793.53 640.49C2796.51 651.471 2799.27 662.52 2801.81 673.668C2801.9 674.053 2802 674.44 2802.09 674.831C2804.55 685.119 2807.2 698.247 2809.68 712.214C2811.09 720.02 2812.41 727.888 2813.63 735.831C2825.75 814.771 2826.94 895.721 2817.45 974.954C2817.4 975.353 2817.36 975.752 2817.31 976.151C2817.26 976.567 2817.21 976.982 2817.16 977.398C2810.17 1034.62 2797.62 1090.79 2779.65 1144.43C2778.8 1146.98 2777.9 1149.61 2776.98 1152.27C2770.27 1171.97 2763.56 1189.99 2762.37 1190.79C2761.99 1191.05 2759.77 1196.04 2757.15 1202.45C2756.73 1203.47 2756.3 1204.53 2755.86 1205.62C2755.41 1206.76 2754.94 1207.91 2754.47 1209.06C2740.75 1242.72 2721.33 1280.8 2699.94 1316.56C2688.24 1336.16 2676.06 1354.91 2664.11 1371.49C2660.88 1375.97 2658.23 1379.95 2658.23 1380.33C2658.23 1380.35 2658.21 1380.4 2658.18 1380.47C2657.49 1382.15 2650.12 1391.91 2641 1403.49C2637.81 1407.59 2634.58 1411.71 2631.67 1415.33C2628.34 1419.48 2624.82 1423.74 2621.14 1428.08C2618.84 1430.86 2616.64 1433.47 2614.62 1435.83C2613.2 1437.49 2611.72 1439.19 2610.18 1440.93C2610.19 1440.94 2610.19 1440.95 2610.2 1440.96C2610.22 1441.02 2610.23 1441.11 2610.23 1441.21C2610.23 1441.42 2609.45 1442.2 2608.48 1442.96C2608.37 1443.05 2608.26 1443.13 2608.16 1443.21C2606.23 1445.37 2604.22 1447.6 2602.13 1449.87C2602.14 1449.88 2602.14 1449.88 2602.15 1449.89C2602.2 1449.95 2602.23 1450.05 2602.23 1450.21C2602.23 1450.42 2601.45 1451.2 2600.48 1451.96C2600.09 1452.27 2599.79 1452.5 2599.58 1452.65C2599.57 1452.65 2599.56 1452.66 2599.55 1452.67C2593.08 1459.64 2586.02 1466.99 2578.63 1474.44C2578.15 1474.93 2577.67 1475.42 2577.19 1475.91C2577.19 1475.92 2577.19 1475.92 2577.2 1475.92C2577.21 1475.94 2577.22 1475.96 2577.22 1475.99C2577.23 1476.08 2577.18 1476.19 2577.08 1476.35C2577.04 1476.4 2577 1476.46 2576.95 1476.52C2576.86 1476.64 2576.74 1476.78 2576.59 1476.94C2576.51 1477.02 2576.43 1477.1 2576.34 1477.19C2575.9 1477.63 2575.29 1478.2 2574.48 1478.91L2572.38 1480.76C2571.28 1481.86 2570.19 1482.95 2569.1 1484.04C2569.04 1484.12 2568.96 1484.24 2568.85 1484.38C2568.26 1485.14 2566.9 1486.63 2565.23 1488.33C2562.8 1490.81 2560.59 1492.83 2560.32 1492.83C2560.28 1492.83 2560.28 1492.8 2560.31 1492.74C2560.33 1492.69 2560.37 1492.63 2560.42 1492.55C2545.52 1506.99 2530.37 1520.79 2515.97 1532.92C2509.5 1538.37 2502.21 1544.64 2498.64 1547.82C2498.5 1547.97 2498.41 1548.06 2498.39 1548.11C2497.93 1549.15 2484.94 1559.16 2472.24 1568.61C2463.58 1575.07 2455.08 1581.23 2450.71 1584.11C2449.07 1585.2 2448.02 1585.83 2447.78 1585.83C2447.41 1585.83 2445.98 1586.81 2444.44 1588.09C2444.36 1588.16 2444.29 1588.22 2444.21 1588.29C2444.2 1588.3 2444.2 1588.3 2444.2 1588.31C2444.03 1588.61 2443.33 1589.3 2442.48 1589.96C2441.79 1590.5 2441.39 1590.8 2441.27 1590.83C2441.25 1590.84 2441.24 1590.84 2441.23 1590.83C2441.21 1590.81 2441.24 1590.74 2441.32 1590.62C2441.35 1590.59 2441.37 1590.55 2441.4 1590.51C2439.05 1592.22 2435.68 1594.47 2432.64 1596.34C2431.1 1597.28 2428.99 1598.58 2426.63 1600.04C2422.37 1602.67 2417.3 1605.82 2413.23 1608.37C2379.75 1629.3 2338.62 1650.84 2301.09 1667.28C2294.03 1670.38 2287.13 1673.28 2280.48 1675.94C2278.27 1676.82 2276 1677.71 2273.7 1678.6C2259.95 1683.92 2244.46 1689.43 2229.02 1694.54C2209.7 1700.94 2190.49 1706.7 2174.82 1710.71C2174.41 1710.81 2174.01 1710.92 2173.6 1711.02C2171.76 1711.49 2169.97 1711.93 2168.23 1712.34C2167.72 1712.47 2167.21 1712.59 2166.72 1712.72C2166.22 1712.84 2165.74 1712.97 2165.28 1713.1C2164.36 1713.35 2163.52 1713.6 2162.79 1713.83C2162.61 1713.88 2162.44 1713.94 2162.27 1714C2161.77 1714.16 2161.35 1714.31 2161.02 1714.45C2160.8 1714.54 2160.62 1714.62 2160.49 1714.69C2160.35 1714.77 2160.27 1714.83 2160.23 1714.88C2160.21 1714.92 2160.15 1714.96 2160.06 1715.01C2159.97 1715.06 2159.84 1715.12 2159.69 1715.18C2159.54 1715.24 2159.35 1715.31 2159.14 1715.38C2157.21 1716.02 2152.92 1717.08 2147.3 1718.34C2144.8 1718.9 2142.04 1719.5 2139.1 1720.12C2127.36 1722.6 2112.87 1725.39 2101.43 1727.28C2097.74 1727.89 2094.13 1728.47 2090.59 1729.02C2088.5 1729.35 2086.44 1729.67 2084.41 1729.97C2057.68 1734.02 2034.74 1736.52 2010.5 1737.88C1993.76 1738.82 1976.4 1739.22 1956.73 1739.22C1953.34 1739.23 1950.02 1739.21 1946.77 1739.18C1915.43 1738.93 1891.2 1737.42 1863.73 1733.88C1856.65 1732.98 1849.41 1731.95 1841.86 1730.77C1827.39 1728.52 1806.34 1724.38 1790.29 1720.82C1777.46 1718.01 1767.72 1715.59 1767.23 1714.87C1766.96 1714.47 1757.51 1711.54 1746.23 1708.35C1738.59 1706.19 1730.89 1703.87 1723.16 1701.41C1698.01 1693.53 1673.83 1684.53 1648.56 1673.6C1615.68 1659.59 1582.92 1643.34 1551.3 1625.34C1532.61 1614.83 1515.28 1604.14 1497.23 1592.08C1493.13 1589.36 1489.06 1586.61 1485.03 1583.83C1467.65 1571.86 1438.24 1550.27 1436.7 1548.34C1436.19 1547.7 1431.42 1543.69 1423.84 1537.5C1423.2 1536.98 1422.55 1536.46 1421.89 1535.92C1415.95 1531.12 1411.15 1527.24 1407.11 1523.96C1404.75 1522.06 1402.28 1520.08 1399.73 1518.04C1395.71 1514.83 1390.84 1510.66 1385.39 1505.82C1383.35 1504.04 1381.2 1502.14 1378.73 1499.96C1374.34 1496.07 1367.77 1489.88 1360.17 1482.53C1360.07 1482.43 1359.96 1482.33 1359.86 1482.23C1359.93 1482.33 1360 1482.41 1360.05 1482.48C1360.2 1482.69 1360.26 1482.8 1360.23 1482.83C1360.23 1482.84 1360.21 1482.84 1360.2 1482.83C1360.07 1482.8 1359.68 1482.5 1358.98 1481.96C1358.02 1481.2 1357.23 1480.42 1357.23 1480.21C1357.23 1480.03 1357.27 1479.91 1357.35 1479.86C1357.35 1479.86 1357.36 1479.85 1357.37 1479.85C1336.94 1460.29 1315.04 1438.16 1300.11 1421.67C1298.82 1420.26 1297.65 1418.97 1296.65 1417.83C1290.01 1410.32 1282.85 1402.03 1276.96 1395.06C1276.92 1395.03 1276.87 1394.99 1276.83 1394.95C1276.49 1394.63 1276.11 1394.24 1275.73 1393.83C1275.05 1393.07 1274.56 1392.41 1274.41 1392.07C1274.39 1392.05 1274.38 1392.02 1274.38 1392C1273.97 1391.51 1273.57 1391.04 1273.17 1390.57C1267.85 1384.21 1264.24 1379.71 1264.23 1379.31C1264.23 1379.18 1263.86 1378.6 1263.24 1377.73C1262.19 1376.26 1260.41 1373.97 1258.41 1371.5C1256.37 1368.98 1253.53 1365.38 1249.72 1360.46C1247.84 1358.03 1245.87 1355.49 1243.98 1353.01L1241.66 1349.99C1238.94 1346.43 1235.91 1342.46 1232.53 1338.03C1232.21 1337.6 1231.89 1337.19 1231.59 1336.79C1230.93 1335.98 1230.39 1335.33 1229.98 1334.86C1228.79 1333.49 1226.54 1330.43 1223.62 1326.27C1221.47 1323.32 1219.06 1319.87 1216.45 1316.06C1210.41 1307.27 1203.53 1296.75 1196.58 1285.7C1192.1 1278.73 1188.06 1272.27 1185.1 1267.33C1177.46 1254.54 1168.8 1239.36 1162.53 1227.92C1161.58 1226.25 1160.77 1224.81 1160.14 1223.7C1157.44 1218.96 1155.23 1214.76 1155.23 1214.37C1155.23 1214.31 1155.08 1213.92 1154.79 1213.22C1154.39 1212.35 1154.09 1211.69 1153.93 1211.24C1153.81 1210.89 1153.26 1209.58 1152.35 1207.44C1148.79 1199.57 1143.93 1188.35 1135.65 1169.33C1124.86 1144.58 1108.28 1106.56 1098.79 1084.83C1096.05 1078.56 1093.24 1072.12 1090.55 1065.95C1083.28 1049.25 1077.38 1035.69 1073.78 1027.33C1072.86 1025.21 1071.92 1023.07 1071 1020.98C1068.58 1015.62 1066.05 1010.16 1064.19 1006.33C1063.99 1005.91 1063.74 1005.39 1063.45 1004.76C1063.43 1004.74 1063.42 1004.71 1063.41 1004.69C1063.34 1004.56 1063.28 1004.44 1063.22 1004.33C1061.68 1001.58 1059.2 996.406 1057.71 992.831C1056.9 990.883 1052.98 981.886 1047.46 969.272C1044.04 961.57 1040.33 953.176 1036.57 944.652C1024.7 917.751 1012.6 890.074 1008.1 879.367C1007.69 878.412 1007.42 877.767 1007.3 877.464C999.761 860.105 985.023 826.305 969.741 791.331C949.794 745.681 925.032 688.981 914.715 665.331C904.399 641.685 895.63 622.113 895.225 621.831C894.822 621.556 892.798 617.377 890.729 612.546C890.331 611.615 889.939 610.722 889.569 609.887C888.063 606.587 886.878 604.214 886.662 604.095C885.717 605.903 864.85 655.748 852.345 685.958C850.021 691.575 847.976 696.539 846.384 700.429C845.952 701.486 845.554 702.455 845.198 703.331C844.546 704.934 843.586 707.272 842.367 710.227C837.391 722.305 828.575 743.519 819.596 765.033C816.236 773.09 812.745 781.452 809.243 789.831C797.857 817.097 786.116 845.313 781.584 856.331C778.982 862.656 776.409 868.856 774.358 873.749C774.109 874.345 773.866 874.921 773.633 875.476C772.372 878.748 770.703 882.705 769.893 884.331C769.632 884.854 769.224 885.746 768.701 886.932C766.107 893.003 761.248 904.708 757.046 915.007C756.245 916.999 755.463 918.956 754.721 920.831C752.652 926.055 750.634 930.555 750.234 930.831C749.836 931.106 739.031 956.531 726.223 987.331C713.415 1018.13 687.223 1081.13 668.019 1127.33C652.342 1165.04 639.578 1195.73 629.182 1220.67C625.331 1229.94 622.21 1237.44 620.18 1242.33C594.021 1305.32 585.119 1326.34 584.23 1327.23C583.692 1327.77 582.53 1327.57 581.358 1326.73C576.694 1323.41 546.8 1300.58 536.247 1292.28C532.482 1289.31 522.123 1281.22 509.257 1271.17C498.18 1262.56 488.123 1254.73 479.231 1247.78C479.236 1247.8 479.239 1247.81 479.238 1247.82C479.238 1247.82 479.237 1247.83 479.233 1247.83C479.227 1247.84 479.215 1247.84 479.197 1247.83C479.074 1247.8 478.678 1247.5 477.983 1246.96C477.502 1246.58 477.064 1246.2 476.747 1245.88C476.701 1245.83 476.66 1245.79 476.619 1245.74C468.308 1239.25 461.085 1233.59 455.08 1228.86C443.253 1219.55 436.35 1214 434.829 1212.6C434.732 1212.51 434.66 1212.45 434.616 1212.4C433.743 1211.5 429.665 1208.11 424.633 1204.1C422.955 1202.76 421.172 1201.35 419.366 1199.93C418.915 1199.58 418.468 1199.23 418.028 1198.88C411.428 1193.64 406.234 1188.96 406.233 1188.2C406.233 1188.2 406.234 1188.19 406.234 1188.19C406.234 1188.19 406.233 1188.19 406.233 1188.18C406.233 1188.18 406.235 1188.17 406.235 1188.17C406.235 1188.16 406.233 1188.16 406.233 1188.15C406.233 1188.13 406.241 1188.1 406.255 1188.05C406.657 1186.37 412.622 1172.31 419.854 1156.02C421.795 1151.65 423.682 1147.39 425.518 1143.26C430.617 1131.62 436.432 1118.41 442.595 1104.49C462.594 1059.3 479.192 1021.66 479.479 1020.83C479.976 1019.4 496.699 981.61 514.763 940.943C534.061 897.423 554.924 850.599 558.819 842.214C559.225 841.327 559.518 840.691 559.69 840.331C563.281 832.823 619.266 706.536 633.725 673.331C636.12 667.83 651.443 633.18 667.776 596.331C684.109 559.481 699.394 524.831 701.742 519.331C704.089 513.831 709.143 502.356 712.971 493.831C715.567 488.05 718.637 481.118 721.008 475.711C722.116 473.174 723.084 470.951 723.779 469.331C725.904 464.381 727.959 460.105 728.346 459.829C728.365 459.814 728.429 459.7 728.533 459.493C728.889 458.787 729.719 457 730.922 454.372C731.056 454.08 731.194 453.776 731.337 453.462C741.633 430.888 775.028 355.764 776.538 351.581C776.834 350.763 777.811 350.325 784.528 350.092C791.242 349.859 803.698 349.83 826.952 349.83C830.374 349.83 834.124 349.825 838.128 349.816C866.155 349.754 906.629 349.485 934.364 349.167L991.995 348.505L992.745 350.918C992.819 351.156 993.431 352.604 994.504 355.089C999.404 366.443 1013.93 399.425 1030.73 437.331C1042.09 462.958 1053.45 488.633 1062.09 508.2C1069.18 524.247 1074.48 536.232 1076.49 540.831C1080.95 551.006 1084.92 559.556 1085.31 559.831C1085.72 560.117 1089.43 568.168 1110.6 615.866C1124.21 646.281 1138.81 679.152 1141.89 686.476C1163.61 735.537 1193.59 803.318 1234.95 896.827C1244.55 918.548 1252.73 936.546 1253.12 936.827C1253.51 937.104 1260.19 951.731 1267.96 969.331C1328.81 1107.23 1362.78 1182.87 1365.51 1186.6C1366.43 1187.85 1367.4 1189.14 1368.43 1190.48C1382.13 1207.69 1399.44 1227.03 1419.69 1247.84C1423.94 1252.18 1428.3 1256.54 1432.71 1260.88C1432.84 1261 1432.98 1261.13 1433.12 1261.26C1434.04 1262.14 1435.11 1263.2 1436.23 1264.33C1436.31 1264.41 1436.38 1264.48 1436.46 1264.56C1444.51 1272.46 1451.73 1279.45 1458.44 1285.83C1458.7 1285.81 1459.17 1286.18 1459.8 1286.9C1459.81 1286.91 1459.82 1286.92 1459.84 1286.93C1460.27 1287.33 1460.75 1287.81 1461.23 1288.33C1461.39 1288.5 1461.55 1288.67 1461.7 1288.83C1461.83 1288.98 1461.95 1289.12 1462.06 1289.25C1468.54 1295.36 1474.57 1300.91 1480.47 1306.19C1489.08 1313.76 1499.12 1322.32 1509.52 1330.97C1511.48 1332.57 1513.49 1334.19 1515.53 1335.84C1515.54 1335.84 1515.55 1335.84 1515.56 1335.84C1515.77 1335.9 1516.09 1336.14 1516.48 1336.55C1516.53 1336.6 1516.59 1336.67 1516.65 1336.73C1517.92 1337.75 1519.22 1338.79 1520.54 1339.84C1520.54 1339.84 1520.55 1339.84 1520.56 1339.84C1520.77 1339.9 1521.09 1340.14 1521.48 1340.55C1521.52 1340.6 1521.57 1340.65 1521.62 1340.7L1521.62 1340.7C1530.36 1347.65 1539.96 1355.44 1542.95 1358.01C1543.32 1358.33 1543.79 1358.72 1544.36 1359.17C1545.16 1359.8 1545.95 1360.42 1546.74 1361.03C1551.9 1365 1560.53 1371.32 1568.65 1377.12C1573.84 1380.81 1579.02 1384.44 1582.8 1387.04C1585.32 1388.75 1587.24 1390.01 1588.23 1390.57C1588.55 1390.75 1589 1391.01 1589.55 1391.35C1590.95 1392.16 1593.7 1393.88 1597.08 1396.05C1599.05 1397.31 1601.17 1398.67 1603.23 1400.01C1612.45 1406 1624.5 1413.41 1636.22 1420.34C1652.68 1429.96 1669.79 1439.27 1686.57 1447.76C1695.59 1452.23 1704.97 1456.7 1714.09 1460.88C1731.31 1468.67 1748.56 1475.72 1765.72 1481.98C1798.28 1493.37 1826.9 1501.68 1854.17 1507.41C1864.48 1509.53 1874.67 1511.32 1884.73 1512.76C1889.48 1513.44 1893.67 1514.02 1897.51 1514.51C1907.33 1515.63 1917.19 1516.43 1927.24 1516.94C1927.24 1516.94 1927.25 1516.94 1927.26 1516.94C1927.37 1516.92 1927.5 1516.92 1927.65 1516.91C1928.11 1516.89 1928.48 1516.92 1928.73 1517C1928.75 1517 1928.76 1517.01 1928.78 1517.02C1929.11 1517.03 1929.44 1517.05 1929.77 1517.06C1937.34 1517.27 1946.27 1517.32 1958.23 1517.31C1967.27 1517.31 1974.55 1517.28 1980.9 1517.17C1996.48 1516.59 2011.86 1515.49 2027.08 1513.85C2029.92 1513.52 2032.95 1513.16 2036.23 1512.76C2045.39 1511.64 2054.56 1510.31 2063.72 1508.77C2089.76 1504.32 2115.73 1498.21 2141.73 1490.45C2145.18 1489.42 2148.63 1488.35 2152.09 1487.25C2156.11 1485.96 2160.11 1484.63 2164.1 1483.27C2179.21 1478.06 2194.24 1472.26 2209.23 1465.84C2215.59 1463.12 2223.04 1459.72 2230.8 1456.04C2237.44 1452.88 2244.3 1449.52 2250.87 1446.21C2268.83 1436.98 2286.37 1426.94 2303.22 1416.23C2315.62 1408.16 2328.42 1399.3 2340.24 1390.65C2341.01 1390.09 2341.77 1389.53 2342.52 1388.97C2356.61 1378.28 2373.28 1364.84 2377.67 1360.46C2379.9 1358.23 2382.85 1355.67 2384.28 1354.72C2386.44 1352.75 2388.86 1350.57 2391.19 1348.47C2392.06 1347.38 2392.7 1346.81 2393.02 1346.83C2394 1345.95 2394.98 1345.06 2395.96 1344.16C2406.84 1333.71 2422.57 1317.89 2432.39 1307.39C2459.93 1277.07 2486.41 1242.23 2506.75 1209.08C2507.46 1207.94 2508.16 1206.79 2508.85 1205.65C2509.23 1205.02 2509.61 1204.38 2509.99 1203.74C2514.05 1196.92 2518.26 1189.41 2522.49 1181.48C2524.42 1177.85 2526.27 1174.31 2528.07 1170.84C2534.31 1158.67 2540.48 1145.88 2546.13 1133.39C2549.9 1125.04 2553.45 1116.8 2556.67 1108.92C2560.12 1100.22 2563.32 1091.54 2566.39 1082.58C2567.23 1080.11 2568.06 1077.76 2568.83 1075.66C2568.86 1075.55 2568.89 1075.44 2568.93 1075.33C2569.08 1074.8 2569.26 1074.26 2569.44 1073.71C2569.7 1072.95 2569.99 1072.14 2570.31 1071.36C2570.68 1070.42 2571.05 1069.57 2571.39 1068.9C2571.86 1067.76 2572.2 1067.03 2572.36 1066.82L2572.47 1066.72C2573.59 1063.88 2575.73 1057.2 2577.91 1049.69C2581.4 1037.19 2585.67 1020.53 2588.08 1009.33C2594.66 978.691 2599.1 948.076 2601.4 917.549C2603.47 889.454 2603.77 861.238 2602.28 833.331C2600.83 806.895 2597.76 780.572 2593.06 754.404C2592.59 751.873 2592.11 749.348 2591.62 746.831C2588.39 730.446 2582.62 706.61 2578.17 690.224C2577.8 688.926 2577.43 687.628 2577.05 686.331C2574.95 679.128 2572.93 672.954 2572.37 671.961C2572.33 671.902 2572.29 671.857 2572.25 671.831C2571.88 671.574 2570.48 668.02 2569.05 663.741C2568.5 662.216 2567.92 660.556 2567.34 658.831C2565.55 653.585 2563.62 648.202 2561.56 642.739C2558.55 634.83 2555.18 626.41 2551.7 618.125C2543.67 599.202 2534.67 580.356 2525.7 563.88C2520.35 554.068 2516.76 547.502 2514.13 542.729C2505.82 528.414 2497.17 514.683 2488.09 501.434C2475.11 482.878 2460.28 463.699 2445.66 446.495C2435.55 434.831 2424.94 423.473 2413.76 412.331C2387.94 386.593 2365.2 366.719 2339.63 347.79C2318.95 332.517 2296.87 318.14 2273.92 305.053C2259.53 296.92 2244.75 289.313 2229.66 282.265C2224.89 280.123 2219.01 277.539 2211.23 274.134C2202.7 270.4 2194.09 266.863 2185.4 263.52C2145.14 248.173 2103.41 236.776 2061.7 229.925C2038.42 226.101 2015.35 223.504 1992.4 222.139C1949.36 219.664 1906.03 221.468 1863.24 227.613C1846.17 230.089 1829.09 233.262 1811.94 237.134C1804.34 238.871 1796.77 240.749 1789.23 242.769C1779.06 245.495 1768.07 248.519 1764.82 249.489L1762.93 250.044C1762.54 250.155 1762.19 250.251 1761.87 250.335C1761.64 250.398 1761.42 250.452 1761.22 250.5C1760.95 250.564 1760.71 250.614 1760.5 250.653C1760.33 250.682 1760.18 250.707 1760.05 250.723C1759.99 250.729 1759.94 250.734 1759.9 250.738C1759.51 250.77 1759.22 250.745 1758.98 250.662C1758.49 250.494 1758.2 250.092 1757.82 249.451C1753.92 242.982 1748.51 234.738 1742.41 225.876C1731.19 209.58 1717.54 191.068 1706.93 178.007C1694.92 163.207 1679.88 146.592 1664.53 130.86C1643.99 109.879 1622.75 90.2774 1608 79.1459C1605.95 77.5982 1604.38 75.6871 1604.5 74.8989C1604.5 74.8922 1604.51 74.8852 1604.51 74.8783C1604.51 74.8741 1604.51 74.8699 1604.51 74.8657C1604.52 74.823 1604.54 74.7755 1604.57 74.7241C1605.96 72.1982 1628.21 62.9477 1654.8 53.3071C1664.86 49.5857 1675.12 45.9742 1684.23 43.016C1688.26 41.7085 1692.43 40.3958 1696.7 39.0903C1698.64 38.4805 1700.56 37.8833 1702.46 37.3061C1706.55 36.0574 1711.73 34.5818 1717.47 33.0073C1735.05 28.077 1753.05 23.5516 1768.73 20.1635C1770.34 19.8079 1771.85 19.4839 1773.23 19.1977C1774.99 18.8351 1776.65 18.454 1778.06 18.1C1780.41 17.5025 1782.06 16.977 1782.23 16.7338C1782.3 16.6357 1782.86 16.4657 1783.83 16.2358C1790.3 14.619 1814.92 10.3036 1831.73 7.92229C1836.3 7.27574 1840.95 6.66196 1845.64 6.08342C1846.19 6.01237 1846.72 5.9438 1847.23 5.87932C1849.03 5.65412 1851.12 5.41249 1853.44 5.15862C1864.68 3.88101 1876.06 2.81917 1887.11 2.01995C1894.5 1.41719 1901.69 0.883615 1907.73 0.504322C1908.54 0.45378 1909.58 0.406993 1910.81 0.364674Z" fill="#0083CB"/>
</svg>
