<svg width="2806" height="1758" viewBox="0 0 2806 1758" fill="none" xmlns="http://www.w3.org/2000/svg">
<path d="M819.958 30.3627C839.699 29.7488 900.498 30.0106 914.219 30.85C917.633 31.0589 921.035 31.2854 924.427 31.5297C925.502 31.5903 926.568 31.6528 927.63 31.7202C930.696 31.8838 933.266 32.0569 935.219 32.2397C935.982 32.3111 936.743 32.384 937.503 32.4565C945.647 33.15 954.276 34.0867 965.219 35.3618C991.583 38.4338 1017.81 42.7748 1043.78 48.3413C1045.77 48.7633 1047.74 49.1929 1049.72 49.6293C1050.96 49.9031 1052.19 50.179 1053.43 50.4584C1053.73 50.5255 1054.02 50.5942 1054.32 50.6616C1061.26 52.2377 1068.17 53.9042 1075.07 55.6674C1101.53 62.3927 1127.68 70.3922 1153.41 79.6196C1161.69 82.5314 1168.79 85.1891 1176.38 88.2026C1184.66 91.4252 1192.89 94.7728 1201.04 98.2416C1201.1 98.2661 1201.16 98.2908 1201.22 98.3139C1204.84 99.7768 1206.85 100.616 1213.2 103.522C1223.28 108 1233.27 112.671 1243.16 117.537C1251.88 121.793 1260.81 126.391 1269.82 131.245C1284.78 139.279 1299.52 147.779 1314.05 156.749C1323.18 162.316 1331.33 167.518 1340.23 173.517C1353.79 182.547 1367.09 191.967 1380.1 201.77C1380.44 202.02 1380.77 202.271 1381.11 202.524C1392.52 210.901 1404.74 220.626 1417.21 231.187C1430.84 242.577 1444.21 254.517 1457.27 266.94C1457.46 266.56 1458.23 267.153 1459.35 268.581C1459.83 269.195 1460.12 269.578 1460.2 269.743C1470.63 279.766 1480.86 290.096 1490.84 300.703C1498.52 308.782 1505.81 316.775 1512.53 324.52C1517.39 330.04 1522.04 335.493 1526.44 340.831C1527.05 341.564 1527.81 342.489 1528.62 343.485C1531.15 346.533 1533.65 349.595 1536.14 352.674C1536.2 352.748 1536.25 352.802 1536.29 352.831C1536.4 352.931 1536.76 353.355 1537.29 353.998C1538.04 354.855 1539.62 356.86 1541.29 359.064C1543.41 361.794 1546.08 365.227 1547.63 367.184C1549.67 369.349 1555.87 377.766 1563.19 388.111C1578.5 409.314 1592.91 431.328 1606.58 454.372C1609.34 458.932 1611.69 462.871 1613.24 465.57C1613.94 466.802 1614.48 467.776 1614.82 468.432C1614.96 468.717 1615.07 468.941 1615.14 469.102C1620.13 477.837 1624.52 485.797 1630.06 496.857C1633.49 503.427 1637.21 510.498 1639.25 514.331C1641.88 519.28 1645.25 526.255 1646.73 529.831C1646.87 530.18 1647.03 530.542 1647.18 530.914C1648.05 532.96 1649.65 536.647 1651.62 541.18C1652.95 544.144 1657 553.356 1660.9 562.292C1664.99 571.663 1668.95 580.679 1669.7 582.331C1670.45 583.98 1674.5 593.206 1678.7 602.831C1682.9 612.455 1686.95 621.679 1687.7 623.331C1688.17 624.373 1689.97 628.443 1692.28 633.726C1696.8 643.97 1701.65 654.952 1706.84 666.742C1707.69 668.6 1708.45 670.315 1708.87 671.353C1727.05 712.662 1749.42 763.641 1777.25 827.071C1778.02 828.825 1778.79 830.576 1779.56 832.324C1779.93 833.157 1780.27 833.92 1780.54 834.552C1786.31 847.707 1792 860.657 1797.57 873.35C1797.93 874.152 1798.25 874.887 1798.52 875.502C1860.77 1017.23 1909.05 1126.35 1910.28 1128.05C1910.31 1128.01 1910.35 1127.95 1910.4 1127.87C1912.42 1123.36 1945.9 1043.52 1993.67 929.346C1995.72 924.292 2000.06 913.927 2002.63 907.946C2010.29 889.63 2018.27 870.55 2026.5 850.86C2026.58 850.672 2026.65 850.496 2026.72 850.331C2030 842.343 2076.12 732.009 2090.72 697.218C2092.7 692.332 2096.7 682.799 2099.24 676.855C2106.76 658.879 2114.05 641.441 2121.06 624.659C2122.17 621.973 2123.17 619.571 2123.88 617.831C2125.8 613.156 2127.97 607.98 2128.71 606.331C2128.74 606.264 2128.76 606.195 2128.8 606.126C2130.33 602.452 2132.04 598.397 2133.71 594.419C2138.59 582.747 2143.31 571.467 2147.84 560.625C2150.85 553.377 2158.5 535.102 2167.22 514.304C2172.25 502.272 2176.93 491.077 2181.23 480.816C2181.76 479.541 2182.18 478.532 2182.47 477.831C2186.7 467.592 2194.38 449.251 2197.21 442.586C2200.92 433.516 2206.99 418.995 2209.98 412.01C2210.13 411.547 2210.22 411.233 2210.22 411.113C2210.22 410.949 2210.28 410.74 2210.38 410.508C2210.54 410.14 2210.8 409.719 2211.11 409.356C2211.12 409.346 2211.13 409.336 2211.14 409.327C2211.49 408.516 2211.71 408.046 2211.75 408.004C2211.75 408.003 2211.76 408.006 2211.77 408.015C2211.93 408.089 2212.76 408.687 2214.17 409.747C2215.29 410.408 2216.78 411.465 2218.74 412.979C2221.95 415.325 2226.34 418.776 2232.22 423.548C2233.05 424.218 2237.36 427.593 2241.8 431.048C2241.83 431.072 2241.86 431.095 2241.89 431.119C2244.41 433.072 2247.03 435.115 2249.76 437.234C2271.5 454.114 2296.9 473.933 2309.58 483.956C2326.9 497.522 2343.71 510.73 2357.32 521.455C2357.48 521.581 2357.64 521.706 2357.8 521.831C2358.69 522.532 2359.71 523.335 2360.82 524.206C2366 528.26 2371.82 532.796 2375.61 535.728C2375.67 535.771 2375.72 535.815 2375.78 535.859C2380.96 539.866 2384.07 542.247 2385.8 543.969C2386.2 544.321 2386.49 544.6 2386.67 544.788C2387.65 545.593 2388.17 546.041 2388.18 546.089C2388.18 546.113 2387.99 546.554 2387.63 547.397C2387.6 547.915 2387.43 548.455 2387.18 549.079C2386.96 549.63 2386.66 550.247 2386.33 550.972C2385.83 552.051 2384.64 554.728 2383.06 558.273C2379.98 565.696 2374.84 577.243 2366.69 595.331C2366.37 596.036 2365.27 598.527 2362.75 604.201C2361.7 606.573 2360.54 609.201 2359.38 611.831C2356.12 619.255 2352.32 627.805 2350.95 630.831C2350.63 631.55 2350.17 632.557 2349.63 633.766C2348.05 637.333 2346.33 641.21 2344.46 645.421C2343.96 646.572 2343.45 647.717 2342.96 648.831C2340.41 654.638 2337.58 660.998 2336.08 664.325C2329.42 679.348 2321.38 697.484 2311.7 719.331C2310.44 722.175 2309.19 725.018 2307.95 727.831C2305.08 734.347 2301.69 741.963 2300.18 745.316C2298.03 750.165 2295.81 755.166 2293.53 760.324C2292.31 763.099 2290.93 766.209 2289.83 768.665C2288.36 771.977 2286.86 775.35 2285.34 778.786C2271.2 810.701 2256.26 844.416 2240.96 878.927C2240.65 879.677 2240.06 880.999 2239.31 882.648C2237.13 887.567 2234.95 892.501 2232.75 897.448C2232.38 898.324 2231.82 899.611 2231.15 901.109C2230.98 901.472 2230.81 901.846 2230.63 902.232C2217.1 932.762 2203.37 963.731 2189.74 994.464C2189.49 995.04 2189.15 995.797 2188.75 996.686C2186.47 1001.83 2184.19 1006.97 2181.92 1012.09C2181.51 1013.07 2180.72 1014.85 2179.76 1016.96C2152.14 1079.22 2125.26 1139.81 2101.63 1193.03C2101.07 1194.3 2100.51 1195.57 2099.95 1196.83C2096.92 1203.71 2093.32 1211.81 2091.95 1214.83C2091.94 1214.86 2091.93 1214.88 2091.91 1214.91C2089.94 1219.36 2087.95 1223.84 2085.96 1228.33L2084.44 1231.79C2083.38 1234.19 2082.3 1236.62 2081.44 1238.52C2075.08 1252.87 2068.79 1267.07 2062.91 1280.33L2033.2 1347.34C2033.03 1347.91 2031.58 1351.2 2029.83 1354.99C2029.68 1355.3 2029.53 1355.63 2029.38 1355.97L2019.46 1378.33L2017.86 1378.36C2016.54 1378.46 2014.29 1378.55 2011.24 1378.63C2011.01 1378.64 2010.78 1378.65 2010.54 1378.66C2003.86 1378.93 1992.1 1379.09 1971.19 1379.25C1949.06 1379.51 1919.85 1379.66 1892.11 1379.69C1891.85 1379.69 1891.6 1379.69 1891.34 1379.69L1805.72 1380.12L1805.33 1379.11C1805.26 1379.08 1805.22 1379.06 1805.22 1379.03L1805.22 1379.03C1805.22 1378.42 1719.27 1189.69 1614.22 959.625C1605.79 941.17 1597.71 923.474 1589.96 906.509C1589.3 905.069 1588.52 903.377 1587.71 901.59C1466.36 635.934 1427.61 551.834 1419 535.549C1417.28 532.738 1415.46 529.95 1413.46 527.049C1411.08 523.667 1408.59 520.245 1406.01 516.79C1403.17 513.036 1399.98 508.947 1396.31 504.331C1394.54 502.095 1392.82 499.956 1391.15 497.889C1389.69 496.098 1387.9 493.942 1385.97 491.622C1379.08 483.449 1371.79 475.234 1364.22 467.096C1359.09 461.682 1353.43 455.914 1346.8 449.294C1339.07 441.58 1332.6 435.217 1326.73 429.624C1326.05 428.99 1325.36 428.357 1324.68 427.726C1324.22 427.349 1323.82 426.98 1323.55 426.694C1313.02 417.036 1302.34 407.837 1291.75 399.351C1199.61 325.564 1087.71 275.837 971.219 256.915C963.429 255.65 956.188 254.557 949.259 253.615C939.938 252.398 930.623 251.38 921.317 250.56C917.893 250.261 914.471 249.987 911.051 249.741C896.471 248.807 881.207 248.445 862.719 248.459C848.032 248.471 836.05 248.681 824.988 249.201C781.473 251.825 738.217 258.833 695.632 270.245C679.065 274.726 662.638 279.88 646.376 285.707C621.476 294.724 596.874 305.416 572.219 317.894C551.015 328.625 530.514 340.469 510.772 353.374C503.842 357.918 496.982 362.604 490.196 367.431C487.464 369.399 484.666 371.445 481.833 373.551C480.194 374.77 478.542 376.008 476.884 377.261C471.909 381.021 466.876 384.915 461.937 388.824C460.29 390.127 458.654 391.431 457.034 392.733C456.225 393.384 455.419 394.034 454.617 394.683C454.006 395.178 453.398 395.673 452.792 396.166C441.969 405.13 431.438 414.447 421.217 424.096C421.177 424.437 420.576 425.091 419.469 425.959C418.977 426.345 418.633 426.608 418.432 426.74C418.332 426.835 418.233 426.93 418.133 427.026C414.602 430.492 410.7 434.363 406.843 438.221C403.546 441.534 400.262 444.862 397.21 447.988C397.318 448.284 396.708 448.987 395.469 449.959C395.246 450.134 395.053 450.282 394.891 450.406C394.115 451.227 393.343 452.051 392.572 452.876C373.352 473.466 355.381 495.395 338.753 518.575C330.156 530.667 321.797 543.155 314.264 555.206C310.66 561.041 307.146 566.929 303.732 572.863C298.571 582.128 291.45 595.624 285.855 606.831C271.798 634.98 260.009 663.392 250.401 692.382C243.584 713.393 237.675 735.127 232.945 756.659C229.546 772.454 226.686 788.552 224.349 805.013C223.168 813.588 222.149 822.238 221.285 830.97C220.387 840.351 219.693 849.768 219.201 859.205C219.135 861.109 219.074 863.064 219.02 865.06C218.885 870.069 218.788 875.338 218.731 880.725C218.644 888.806 218.646 897.152 218.734 905.284C218.763 907.994 218.801 910.681 218.85 913.326C218.917 916.995 219.005 920.585 219.11 924.046C220.073 944.281 221.832 964.569 224.281 982.331C232.176 1039.59 247.811 1095.06 270.34 1147.39C272.768 1152.94 275.384 1158.73 278.079 1164.52C281.269 1171.28 284.911 1178.79 288.283 1185.56C297.114 1202.86 306.726 1219.76 317.08 1236.2C325.086 1248.62 332.362 1259.43 339.528 1269.47C339.745 1269.78 339.962 1270.08 340.18 1270.39C355.71 1291.79 372.639 1312.37 390.932 1332.06C391.287 1332.33 391.763 1332.84 392.332 1333.56C394.226 1335.59 396.134 1337.6 398.057 1339.61C403.827 1345.55 409.98 1351.74 415.774 1357.43C425.282 1366.64 435.009 1375.52 444.957 1384.07C463.594 1399.99 483.211 1414.93 503.743 1428.79C508.96 1432.3 514.237 1435.75 519.502 1439.1C573.464 1473.29 632.013 1499.24 692.748 1516.02C715.039 1522.12 737.816 1527.04 761.184 1530.81C769.873 1532.2 778.683 1533.45 787.634 1534.55C787.846 1534.58 788.059 1534.6 788.272 1534.63C800.139 1535.96 812.287 1536.97 824.545 1537.67C832.117 1537.95 840.772 1538.15 849.735 1538.26C853.625 1538.29 857.767 1538.3 862.219 1538.3C879.507 1538.32 891.563 1538.2 902.116 1537.75C905.496 1537.56 908.854 1537.35 912.189 1537.11C927.565 1535.86 942.596 1534.16 957.359 1531.99C971.433 1529.87 985.185 1527.36 998.714 1524.44C1024.35 1518.89 1049.66 1511.8 1073.64 1503.41C1079.62 1501.32 1084.89 1499.55 1087.66 1498.67C1087.67 1498.67 1087.67 1498.67 1087.67 1498.67C1087.68 1498.66 1087.7 1498.66 1087.71 1498.65C1087.72 1498.65 1087.73 1498.65 1087.74 1498.64C1088.1 1498.53 1088.42 1498.43 1088.69 1498.35C1088.7 1498.34 1088.71 1498.34 1088.73 1498.34C1088.77 1498.32 1088.82 1498.31 1088.86 1498.3C1088.87 1498.29 1088.88 1498.29 1088.89 1498.29C1088.91 1498.28 1088.93 1498.28 1088.95 1498.27C1089.07 1498.24 1089.17 1498.21 1089.27 1498.18C1089.28 1498.18 1089.28 1498.18 1089.29 1498.18C1089.33 1498.16 1089.37 1498.15 1089.41 1498.15C1089.44 1498.14 1089.47 1498.13 1089.49 1498.12C1089.49 1498.12 1089.49 1498.12 1089.5 1498.12C1089.65 1498.09 1089.73 1498.07 1089.74 1498.09C1089.77 1498.13 1089.99 1498.46 1090.37 1499.03C1090.4 1499.06 1090.43 1499.08 1090.45 1499.12C1090.57 1499.3 1090.75 1499.58 1090.98 1499.94C1092 1501.46 1093.55 1503.78 1095.25 1506.33C1097.41 1509.58 1099.65 1512.85 1101.95 1516.13C1108.76 1525.58 1117.88 1537.72 1124.92 1546.59C1127.31 1549.59 1129.69 1552.55 1132.09 1555.47C1142.4 1567.88 1153.35 1580.14 1164.68 1591.95C1165.13 1592.23 1165.94 1592.97 1166.72 1593.83C1167.19 1594.35 1167.57 1594.83 1167.81 1595.19C1171.31 1598.79 1174.84 1602.34 1178.39 1605.84C1178.4 1605.83 1178.4 1605.83 1178.41 1605.83C1178.68 1605.83 1179.72 1606.73 1180.72 1607.83C1181.16 1608.32 1181.51 1608.76 1181.76 1609.11C1192.5 1619.38 1203.9 1629.53 1216.27 1639.87C1224.55 1646.71 1233.75 1654.13 1242 1660.57C1244.17 1662.23 1246.06 1663.68 1246.9 1664.37L1247.02 1664.46L1247.14 1664.56L1249.51 1666.38L1234.12 1673.76C1206.43 1687.02 1177.51 1698.92 1147.97 1709.27C1147.89 1709.3 1147.81 1709.32 1147.72 1709.35C1146.96 1709.62 1146.19 1709.89 1145.43 1710.15C1137.82 1712.8 1130.18 1715.34 1122.51 1717.76C1105.91 1723.07 1089.5 1727.78 1073.72 1731.72C1063.65 1734.23 1053.56 1736.56 1043.44 1738.71C1033.01 1740.94 1022.6 1742.96 1012.22 1744.76C1007.05 1745.65 1001.88 1746.5 996.7 1747.3C993.026 1747.87 989.348 1748.42 985.669 1748.95C970.581 1751.12 955.424 1752.91 940.219 1754.29C913.128 1756.74 885.695 1757.85 858.157 1757.65C851.791 1757.61 845.427 1757.5 839.066 1757.33C838.668 1757.32 838.27 1757.3 837.872 1757.29C837.08 1757.27 836.288 1757.25 835.495 1757.22C834.63 1757.2 833.765 1757.17 832.9 1757.14C832.49 1757.12 832.081 1757.11 831.672 1757.09C772.506 1754.98 713.823 1746.82 656.472 1732.69C622.79 1724.48 589.878 1714.29 558.219 1702.19C553.923 1700.55 549.598 1698.85 545.259 1697.11C531.78 1691.77 518.428 1686.07 505.219 1680.03C504.935 1679.9 504.648 1679.76 504.359 1679.63C497.19 1676.34 490.077 1672.96 483.019 1669.49C475.018 1665.58 467.28 1661.63 459.93 1657.71C451.893 1653.43 443.037 1648.55 438.408 1645.88C435.747 1644.37 433.095 1642.85 430.452 1641.31C429.941 1641.02 429.524 1640.78 429.219 1640.61C429.141 1640.57 429.063 1640.52 428.983 1640.48C428.723 1640.33 428.395 1640.15 428.012 1639.93C425.662 1638.58 422.664 1636.78 419.233 1634.67C416.663 1633.13 414.102 1631.57 411.55 1629.99C410.815 1629.55 410.227 1629.21 409.843 1628.99C408.767 1628.37 406.324 1626.81 403.068 1624.7C391.622 1617.46 380.363 1609.96 369.297 1602.21C366.838 1600.53 364.625 1598.98 362.741 1597.64C361.89 1597.04 361.204 1596.55 360.719 1596.18C360.058 1595.69 359.293 1595.12 358.462 1594.5C354.055 1591.32 349.68 1588.09 345.337 1584.82C341.986 1582.34 338.455 1579.67 336.768 1578.33C335.974 1577.7 335.208 1577.09 334.466 1576.51C327.07 1570.76 319.772 1564.89 312.574 1558.91C306.366 1553.8 300.593 1548.88 294.696 1543.68C289.91 1539.54 286.225 1536.24 281.769 1532.08C275.089 1525.98 268.505 1519.78 262.023 1513.48C261.05 1512.62 260.417 1512.09 260.263 1512.03C260.18 1512 259.89 1511.75 259.423 1511.31C258.382 1510.43 256.384 1508.52 254.219 1506.33C254.199 1506.31 254.179 1506.29 254.158 1506.27C253.7 1505.82 253.214 1505.34 252.719 1504.83C251.007 1503.08 249.686 1501.58 249.36 1501.04C247.893 1499.51 246.338 1497.89 244.732 1496.2C231.821 1482.95 219.262 1469.21 207.225 1455.16C201.361 1448.34 195.763 1441.6 190.151 1434.6C189.919 1434.31 189.688 1434.02 189.456 1433.73C189.345 1433.59 189.234 1433.45 189.122 1433.31C182.501 1425.04 176.081 1416.7 169.897 1408.33C169.788 1408.18 169.678 1408.03 169.567 1407.88C167.274 1404.8 164.932 1401.63 162.525 1398.33C162.081 1397.73 161.182 1396.43 159.956 1394.64C149.843 1380.46 140.152 1365.98 130.902 1351.21C130.503 1350.59 130.207 1350.12 130.032 1349.83C129.8 1349.45 129.545 1349.04 129.282 1348.61C129.107 1348.33 128.933 1348.05 128.759 1347.76C127.835 1346.28 126.864 1344.76 126.248 1343.83C125.333 1342.46 124.272 1340.66 123.89 1339.83C123.874 1339.8 123.855 1339.76 123.836 1339.72C122.757 1337.94 121.685 1336.15 120.619 1334.36C117.591 1329.57 113.375 1322.22 108.676 1313.64C98.0524 1294.6 88.1378 1275.14 78.9651 1255.3C78.7002 1254.72 78.4416 1254.16 78.1878 1253.61C74.9515 1246.56 71.8071 1239.48 68.7591 1232.34C63.3722 1219.95 60.2767 1212.21 56.0061 1200.83C54.8776 1197.82 53.7877 1194.88 52.7298 1192C51.8903 1189.73 51.059 1187.44 50.2386 1185.15C41.8659 1161.9 35.6374 1142.07 29.6399 1119.5C24.4609 1100.34 19.9369 1080.96 16.0764 1061.39C11.9652 1040.7 8.67105 1020.15 6.16043 999.457C4.53675 986.32 3.20263 973.109 2.16434 959.831C1.91086 956.59 1.67784 952.969 1.46609 949.059C1.37099 947.654 1.27708 946.245 1.1868 944.831C0.841376 939.419 0.582851 931.476 0.412383 922.303C-0.123509 904.235 -0.134623 885.804 0.364532 866.831C0.371531 866.565 0.379743 866.299 0.386993 866.033C0.550977 856.749 0.805632 848.729 1.15164 843.331C1.22868 842.129 1.30797 840.93 1.38895 839.732C1.61948 835.553 1.88065 831.57 2.1741 827.831C2.93921 818.082 3.85126 808.413 4.90848 798.814C12.0398 732.441 26.9928 667.384 49.3167 604.791C50.3765 601.806 51.4514 598.818 52.5471 595.831C55.8897 586.717 59.5515 577.34 63.4593 567.854C64.9368 564.24 66.4413 560.636 67.969 557.04C68.7578 555.165 69.5517 553.289 70.3548 551.414C72.3235 546.815 74.5805 541.77 77.0335 536.456C90.3685 507.22 105.385 478.632 122.042 450.831C122.902 449.397 123.966 447.664 125.185 445.707C125.576 445.042 125.949 444.408 126.285 443.831C126.962 442.667 128.4 440.381 130.309 437.405C132.67 433.66 135.805 428.801 138.887 424.107C142.809 418.079 146.808 412.09 150.887 406.146C153.533 402.213 155.8 398.905 157.391 396.683C159.221 394.127 163.74 387.827 167.431 382.683C167.895 382.037 168.429 381.306 169.025 380.501C171.293 377.432 174.518 373.196 177.999 368.698C187.847 355.676 197.138 344.109 204.719 335.539C204.96 335.266 205.259 334.925 205.611 334.527C208.65 330.941 211.722 327.376 214.824 323.831C223.107 314.367 232.892 303.905 243.415 293.18C252.692 283.625 262.189 274.272 271.887 265.136C277.756 259.442 282.957 254.517 286.749 251.105C290.008 248.173 295.756 243.208 302.207 237.719C305.789 234.613 309.301 231.622 312.719 228.777C314.577 227.23 316.441 225.693 318.31 224.164C319.057 223.542 319.795 222.93 320.52 222.33C322.413 220.758 324.17 219.311 325.719 218.045C325.857 217.933 326.109 217.735 326.463 217.46C327.267 216.836 328.554 215.854 330.178 214.622C358.271 192.441 387.581 172.126 417.94 153.744C422.302 151.059 425.956 148.867 428.219 147.601C428.444 147.475 428.69 147.335 428.956 147.185C448.665 135.649 468.801 124.919 489.317 115.01C493.24 113.092 496.842 111.38 499.971 109.956C504.666 107.767 509.381 105.622 514.114 103.519C514.482 103.354 514.851 103.189 515.219 103.026C515.981 102.687 516.872 102.296 517.864 101.864C520.358 100.77 522.856 99.6859 525.361 98.6157C529.327 96.899 533.309 95.215 537.305 93.561C543.582 90.9192 548.628 88.833 548.834 88.8305C548.885 88.8305 549.131 88.753 549.538 88.6137C558.875 84.9265 568.292 81.4071 577.788 78.0571C587.2 74.6535 595.501 71.8566 602.311 69.7983C603.239 69.5179 604.144 69.2454 605.027 68.979C614.036 66.1495 623.115 63.4677 632.262 60.9331C635.3 60.0764 638.136 59.3007 641.034 58.5297C678.085 48.5839 715.729 41.1662 753.719 36.3598C753.925 36.3337 754.133 36.3079 754.343 36.2817C768.361 34.4716 782.453 32.9991 796.609 31.8666C800.945 31.5064 805.315 31.1681 809.719 30.8569C810.8 30.7805 812.065 30.713 813.495 30.6499C814.415 30.5844 815.324 30.5204 816.219 30.4594C816.778 30.4213 818.064 30.3892 819.958 30.3627Z" fill="#0083CB"/>
<path d="M1904.86 0.191844C1918.77 -0.0788622 1945.41 -0.0519406 1966.39 0.202587C1972.45 0.276152 1978.03 0.368345 1982.7 0.477977C1984.57 0.52183 1986.29 0.568395 1987.84 0.617626C1989.38 0.666856 1990.75 0.719491 1991.92 0.773876C1992.5 0.801057 1993.03 0.828457 1993.51 0.856883C1994.86 0.937429 1996.21 1.02194 1997.56 1.10884C1997.71 1.11857 1997.86 1.12832 1998.01 1.13813C1999 1.20209 1999.98 1.26709 2000.97 1.33442C2005.04 1.4729 2008.08 1.61626 2009.72 1.76118C2011.17 1.88975 2012.62 2.02139 2014.07 2.15474C2014.12 2.15907 2014.16 2.16407 2014.21 2.16841C2057.26 6.14279 2096.51 12.2412 2135.08 21.0512C2151.39 24.7547 2167.49 28.9153 2183.46 33.56C2211.49 41.5921 2238.49 50.8918 2263.72 61.2944C2264.33 61.548 2264.99 61.8187 2265.68 62.102C2269.49 63.6418 2273.29 65.2079 2277.08 66.8022C2278.42 67.3569 2279.66 67.8686 2280.72 68.3032C2290.16 72.1972 2301.2 77.2149 2312.86 82.853C2318.18 85.3869 2323.46 87.9745 2328.72 90.6186C2336.12 94.3431 2344.38 98.6898 2352.69 103.206C2369.27 112.097 2384.8 121.067 2397.72 129.33C2398.99 130.144 2400.26 130.956 2401.52 131.766C2416.98 141.496 2432.07 151.688 2446.72 162.306C2449.05 163.999 2451.38 165.703 2453.7 167.417C2454.15 167.753 2454.6 168.09 2455.06 168.427C2455.49 168.746 2455.92 169.066 2456.35 169.386C2456.91 169.805 2457.47 170.222 2458.03 170.642C2458.12 170.705 2458.2 170.767 2458.29 170.831C2461.79 173.394 2467.5 177.745 2472.89 181.93C2474.24 182.976 2475.57 184.012 2476.84 185.007C2478.75 186.5 2480.52 187.9 2482.03 189.106C2483.54 190.312 2484.79 191.323 2485.63 192.036C2487.79 193.848 2492.74 197.973 2496.63 201.201C2500.53 204.43 2505.8 208.93 2508.35 211.201C2510.89 213.473 2517.76 219.606 2523.6 224.831C2524.88 225.971 2526.23 227.199 2527.64 228.504C2531.1 231.699 2534.94 235.358 2539.02 239.336C2547.62 247.584 2556.05 255.998 2564.29 264.573C2564.77 265.071 2565.25 265.57 2565.73 266.069C2566.09 266.443 2566.45 266.816 2566.8 267.191C2567.69 268.122 2568.58 269.056 2569.46 269.991C2569.55 270.086 2569.64 270.181 2569.73 270.276C2575.84 276.74 2581.84 283.291 2587.73 289.926C2589.97 292.396 2592.12 294.795 2594.15 297.099C2597.09 300.422 2599.79 303.545 2602.18 306.391C2602.72 307.037 2603.28 307.719 2603.87 308.432C2606.41 311.495 2609.36 315.139 2612.47 319.02C2623.94 333.14 2634.96 347.6 2645.51 362.374C2645.81 362.773 2646.04 363.096 2646.22 363.331C2655.48 375.712 2679.7 412.999 2687.46 426.823C2687.56 426.995 2687.66 427.164 2687.75 427.331C2688.19 428.102 2688.62 428.868 2689.04 429.624C2690.82 432.757 2693.43 437.317 2695.73 441.331C2697.06 443.646 2698.95 447.125 2701.16 451.275C2703.89 456.293 2706.58 461.339 2709.21 466.411C2713.6 474.801 2717.54 482.67 2721.46 490.909C2723.38 494.812 2724.96 498.092 2725.97 500.331C2733.63 517.288 2735.58 521.73 2740.16 532.697C2740.19 532.789 2740.23 532.881 2740.27 532.973C2746.16 547.057 2751.72 561.58 2756.91 576.421C2757 576.686 2757.1 576.95 2757.19 577.214C2757.46 578.002 2757.74 578.79 2758.01 579.579C2759.03 582.536 2760.04 585.503 2761.04 588.48C2770.57 616.861 2778.64 645.808 2785.18 675.217C2791.05 701.407 2795.6 727.437 2798.89 753.8C2799.72 760.329 2800.46 766.842 2801.12 773.331C2801.31 775.167 2801.49 777 2801.67 778.831C2801.78 779.982 2801.88 781.136 2801.99 782.29C2802.05 782.974 2802.11 783.658 2802.17 784.341C2802.2 784.71 2802.23 785.079 2802.27 785.449C2802.33 786.146 2802.39 786.844 2802.44 787.541C2806.45 833.399 2806.8 879.317 2803.58 924.848C2802.06 948.047 2799.59 970.51 2796.05 993.646C2794.75 1002.28 2793.32 1010.85 2791.76 1019.33C2791.08 1023.04 2790.36 1026.77 2789.62 1030.5C2784.34 1057.43 2777.81 1083.96 2770.05 1110.06C2767.67 1118.12 2765.23 1125.95 2762.73 1133.45C2759.66 1142.78 2756.44 1152.05 2753.05 1161.27C2752.49 1162.89 2751.56 1165.41 2750.39 1168.47C2750.34 1168.61 2750.3 1168.73 2750.27 1168.83C2749.83 1170.16 2747.98 1174.86 2745.66 1180.65C2744.08 1184.63 2742.47 1188.61 2740.83 1192.57C2738.41 1198.5 2736.2 1203.8 2734.78 1206.98C2734.46 1207.72 2734.19 1208.35 2733.97 1208.83C2733.71 1209.41 2733.39 1210.11 2733.04 1210.9C2731.69 1213.95 2730.33 1217 2728.95 1220.04C2728.52 1221.01 2728.11 1221.95 2727.72 1222.83C2726.89 1224.71 2725.81 1227.03 2724.56 1229.67C2722.62 1233.82 2720.45 1238.32 2718.09 1243.06C2710.48 1258.6 2702.38 1273.92 2693.8 1289.01C2691.78 1292.57 2689.73 1296.11 2687.66 1299.63C2687.14 1300.56 2686.71 1301.31 2686.42 1301.83C2682.8 1308.29 2677.47 1316.9 2671.22 1326.51C2659.04 1345.64 2646.17 1364.2 2632.66 1382.19C2627.14 1389.68 2621.95 1396.48 2617.51 1402.01C2617.44 1402.1 2617.36 1402.2 2617.29 1402.29C2617.07 1402.57 2616.84 1402.84 2616.62 1403.12C2616.17 1403.67 2615.74 1404.21 2615.31 1404.73C2615.21 1404.85 2615.1 1404.97 2615.01 1405.1C2614.53 1405.67 2614.06 1406.24 2613.61 1406.78C2613.59 1406.8 2613.58 1406.81 2613.56 1406.83C2612.98 1407.52 2611.52 1409.27 2609.64 1411.53C2607.75 1413.8 2605.44 1416.58 2603.16 1419.33C2601.88 1420.87 2600.57 1422.43 2599.23 1424.01C2597.89 1425.59 2596.52 1427.19 2595.13 1428.79C2590.97 1433.61 2586.62 1438.51 2582.32 1443.23C2581.51 1444.12 2580.7 1445 2579.89 1445.88C2575.18 1451.04 2570.41 1456.14 2565.59 1461.18C2565.31 1461.47 2565.04 1461.76 2564.76 1462.05C2564.39 1462.44 2564.01 1462.83 2563.63 1463.22C2563.27 1463.6 2562.9 1463.98 2562.53 1464.36C2562.32 1464.6 2562.13 1464.82 2561.96 1465.02C2561.84 1465.16 2561.72 1465.3 2561.62 1465.42C2561.44 1465.64 2561.29 1465.82 2561.19 1465.96C2561.21 1466 2561.22 1466.04 2561.22 1466.1C2561.21 1466.21 2559.45 1468 2556.85 1470.57C2556.07 1471.41 2554.18 1473.28 2551.97 1475.37L2550.69 1476.58L2543.72 1483.33L2545.1 1481.9C2537.36 1489.47 2529.5 1496.88 2521.52 1504.11C2521.08 1504.52 2520.64 1504.92 2520.22 1505.31C2514.57 1510.53 2507.56 1516.63 2499.86 1523.08C2499.63 1523.27 2499.4 1523.47 2499.17 1523.66C2484.05 1536.45 2468.52 1548.71 2452.58 1560.42C2448.57 1563.39 2444.72 1566.18 2441.09 1568.72C2427.02 1578.72 2412.65 1588.29 2398 1597.42C2397.24 1597.91 2396.48 1598.38 2395.73 1598.85C2384.87 1605.79 2376.62 1610.83 2375.85 1610.83C2375.82 1610.83 2375.71 1610.88 2375.54 1610.96C2373.41 1612.2 2371.27 1613.43 2369.13 1614.65C2369.11 1614.66 2369.09 1614.68 2369.07 1614.69C2361.24 1619.44 2350.11 1625.47 2336.68 1632.26C2321.78 1639.97 2306.68 1647.22 2291.4 1654.02C2291.01 1654.2 2290.61 1654.38 2290.22 1654.56C2288.24 1655.47 2285.13 1656.81 2281.48 1658.36C2267.32 1664.44 2253.02 1670.13 2238.59 1675.42C2238.54 1675.43 2238.5 1675.45 2238.46 1675.47C2235.94 1676.45 2232.04 1677.84 2227.39 1679.43C2212.61 1684.61 2197.72 1689.36 2182.72 1693.68C2169.65 1697.44 2156.5 1700.89 2143.31 1704.03C2121.58 1709.23 2099.98 1713.52 2078.17 1716.96C2070.8 1718.13 2063.44 1719.2 2056.08 1720.18C2020.65 1724.93 1985.75 1727.4 1951.27 1727.58C1924.16 1727.91 1896.89 1726.65 1869.56 1723.81C1850.93 1721.94 1832.59 1719.36 1814.61 1716.09C1814.37 1716.04 1814.13 1716 1813.89 1715.96C1812.66 1715.73 1811.44 1715.51 1810.22 1715.27C1797.43 1712.85 1784.68 1710.11 1771.96 1707.05C1743.5 1700.27 1715.2 1691.81 1687 1681.66C1640.08 1664.86 1593.89 1643.66 1548.71 1618.18C1529.6 1607.45 1510.93 1596.08 1492.83 1584.14C1492.39 1583.85 1491.95 1583.56 1491.51 1583.27C1478.41 1574.66 1465.49 1565.7 1452.76 1556.43C1452.39 1556.16 1452.01 1555.89 1451.64 1555.62C1451.2 1555.29 1450.75 1554.97 1450.3 1554.64C1449.66 1554.17 1449.03 1553.71 1448.39 1553.24C1448.33 1553.2 1448.27 1553.16 1448.22 1553.12C1444.86 1550.85 1437.88 1545.55 1429.63 1539.1C1428.23 1538.02 1426.83 1536.94 1425.44 1535.85C1416.9 1529.27 1408.03 1522.1 1399 1514.52C1394.96 1511.2 1391.3 1508.13 1388.3 1505.55C1383.76 1501.64 1379.11 1497.55 1374.38 1493.32C1358.18 1478.92 1342.41 1464 1327.13 1448.63C1327.41 1449.06 1327.06 1448.81 1325.97 1447.96C1325.01 1447.2 1324.22 1446.42 1324.22 1446.21C1324.22 1446.01 1324.27 1445.89 1324.36 1445.85C1309.98 1431.38 1296.63 1417.13 1285.22 1403.94C1284.45 1403.05 1283.68 1402.17 1282.96 1401.33C1281.33 1399.48 1279.72 1397.62 1278.1 1395.76C1271.77 1388.59 1263.67 1378.95 1256.33 1369.83C1251.24 1363.51 1246.47 1357.58 1245.73 1356.67C1240.96 1350.77 1234.57 1342.22 1227.58 1332.55C1214.92 1315.35 1202.87 1297.83 1191.47 1280.03C1187.72 1274.25 1184.46 1269.07 1181.97 1264.88C1180.63 1262.7 1179.31 1260.52 1177.99 1258.33C1170.62 1246.1 1165.63 1237.97 1159.02 1225.22C1158.11 1223.55 1157.12 1221.77 1156.17 1220.04C1154.98 1217.94 1153.72 1215.73 1152.64 1213.83C1150.28 1209.71 1146.12 1201.16 1143.39 1194.83C1140.87 1188.96 1133.64 1172.45 1126.8 1156.91C1123.87 1150.28 1120.83 1143.37 1117.75 1136.33C1117.72 1136.25 1117.68 1136.18 1117.65 1136.1C1115 1130.08 1112.45 1124.27 1110.01 1118.71C1088.78 1070.77 1058.64 1002.02 1014.14 900.581C941.342 734.619 881.522 598.831 881.208 598.831C880.946 598.924 846.422 681.064 796.697 799.814C796.415 800.534 796.038 801.436 795.615 802.395C775.781 849.764 753.571 902.854 730.179 958.822C720.087 982.969 710.441 1006.03 701.26 1027.97C700.471 1029.88 699.7 1031.71 699.064 1033.22C686.691 1062.79 675.177 1090.27 664.569 1115.56C655.066 1138.25 646.137 1159.6 639.547 1175.36C638.266 1178.65 634.269 1188.19 631.139 1195.5C629.884 1198.52 629.049 1200.52 628.718 1201.33C628.157 1202.7 627.267 1204.84 626.175 1207.47C625.989 1208.15 625.221 1210.07 624.307 1212.09C623.986 1212.8 623.671 1213.51 623.332 1214.28C621.406 1218.88 619.25 1224.02 617.224 1228.83C612.705 1239.56 606.868 1253.51 604.254 1259.83C584.244 1308.24 579.613 1318.79 578.545 1318.39C577.306 1317.93 532.772 1283.18 488.903 1248.7C485.442 1245.98 481.987 1243.26 478.557 1240.56C439.87 1210.13 404.452 1182.08 403.25 1180.69L403.219 1180.65C403.219 1180.64 403.22 1180.62 403.22 1180.61L403.219 1180.61C403.219 1180.61 403.22 1180.61 403.221 1180.6C403.221 1180.6 403.221 1180.6 403.221 1180.59C403.221 1180.59 403.219 1180.59 403.219 1180.59C403.219 1180.58 403.221 1180.57 403.223 1180.56C403.279 1179.92 403.902 1178.14 404.656 1176.48C404.996 1175.74 406.093 1173.27 407.709 1169.63C409.52 1165.43 411.75 1160.34 414.155 1154.93C416.921 1148.7 421.945 1137.38 427.966 1123.81C429.18 1121.06 430.364 1118.38 431.488 1115.83C434.515 1108.96 438.116 1100.86 439.489 1097.83C439.559 1097.68 439.631 1097.51 439.708 1097.34C441.503 1093.29 443.315 1089.21 445.119 1085.14C445.24 1084.87 445.36 1084.6 445.475 1084.33C447.13 1080.54 449.22 1075.83 450.494 1073.02C450.745 1072.46 450.995 1071.89 451.244 1071.33C460.495 1050.46 468.918 1031.48 473.949 1020.14C476.539 1014.29 478.354 1010.19 478.737 1009.33C479.009 1008.72 479.821 1006.91 480.991 1004.3C481.276 1003.66 481.585 1002.96 481.917 1002.21C483.15 999.42 484.605 996.125 486.054 992.831C488.527 987.209 491.462 980.613 493.485 976.123C494.988 972.732 496.566 969.172 498.199 965.489C498.211 965.447 498.219 965.419 498.219 965.405C498.22 965.208 499.831 961.595 501.866 957.214C502.653 955.438 503.45 953.642 504.252 951.831C504.913 950.34 505.569 948.858 506.22 947.389C506.235 947.227 506.821 945.851 507.699 943.878C507.795 943.662 507.895 943.439 507.997 943.209C508.477 942.14 509.025 940.932 509.608 939.67L510.446 937.838C510.58 937.542 510.721 937.227 510.869 936.899C518.287 920.161 524.513 906.124 527.634 899.093C527.928 898.429 528.223 897.764 528.518 897.098C528.598 896.917 528.675 896.743 528.749 896.576C531.468 890.439 534.207 884.26 536.961 878.043C536.992 877.973 537.024 877.901 537.055 877.831C539.785 871.624 542.885 864.632 544.629 860.738C581.195 778.224 620.148 690.374 655.296 611.163C655.572 610.443 656.55 608.242 657.833 605.446C659.706 601.226 661.568 597.033 663.416 592.868C663.733 592.072 664.408 590.516 665.267 588.61C665.679 587.695 666.132 586.7 666.608 585.67C666.633 585.616 666.657 585.559 666.684 585.501C678.137 559.677 685.736 542.558 686.289 541.331C686.33 541.242 686.384 541.115 686.457 540.953C688.65 536.012 690.818 531.133 692.956 526.317C693.319 525.493 693.688 524.662 694.054 523.831C696.322 518.675 698.98 512.7 700.965 508.282C702.619 504.553 704.371 500.598 706.204 496.464C706.212 496.436 706.219 496.416 706.219 496.405C706.22 496.209 707.808 492.646 709.823 488.307C711.22 485.155 712.652 481.924 714.112 478.633C714.181 478.453 714.219 478.347 714.219 478.322C714.22 478.141 715.097 476.115 716.295 473.502C716.57 472.902 716.86 472.271 717.161 471.626C717.189 471.567 717.217 471.505 717.246 471.442C717.661 470.551 718.303 469.144 719.114 467.35C727.863 447.611 737.211 426.514 745.606 407.561C747.327 403.654 749.221 399.381 750.779 395.883C752.474 392.056 754.112 388.361 755.674 384.831C758.109 379.33 760.445 374.089 762.55 369.389C763.692 366.82 764.772 364.409 765.49 362.831C766.867 359.805 768.957 355.193 770.132 352.581L772.269 347.831H821.578C823.698 347.831 825.945 347.826 828.3 347.823C843.097 347.685 859.96 347.552 877.812 347.442C878.14 347.44 878.468 347.438 878.797 347.436L934.114 347.097L984.75 346.509L984.874 346.787H984.889L1045.1 482.164C1046.15 484.496 1049.62 492.291 1054.19 502.611C1060.9 517.681 1070.85 540.056 1082.77 566.872L1201.65 834.174C1201.75 834.399 1201.85 834.619 1201.95 834.831C1202.74 836.578 1206.08 844.079 1210.61 854.29C1210.69 854.476 1210.77 854.662 1210.86 854.849C1219.55 874.395 1233.93 906.723 1251.06 945.28L1346.37 1159.58C1349.19 1165.89 1350.87 1169.65 1351.18 1170.33C1352.92 1174.07 1357.92 1180.89 1365.09 1189.61C1367.15 1192.08 1369.14 1194.45 1371.09 1196.76C1382.85 1210.51 1398.46 1227.52 1414.76 1244.36C1418.17 1247.83 1421.79 1251.49 1425.68 1255.38C1444.45 1274.16 1462.93 1291.47 1481.63 1307.75C1512.82 1334.48 1544.45 1358.7 1576.34 1380.34C1578.29 1381.65 1580.25 1382.97 1582.22 1384.28C1582.5 1384.46 1582.78 1384.65 1583.07 1384.84C1589.28 1388.92 1595.63 1393.04 1601.55 1396.81C1621.47 1409.39 1641.36 1420.93 1661.2 1431.41C1675.54 1438.84 1693.79 1447.75 1706.88 1453.7C1718.9 1459.07 1731.06 1464.14 1743.14 1468.82C1751.93 1472.2 1760.71 1475.37 1769.49 1478.35C1777.47 1481 1785.7 1483.61 1793.55 1485.98C1826.9 1495.81 1860.05 1502.55 1892.94 1506.2C1906.43 1507.51 1920.56 1508.32 1934.93 1508.61C1941.38 1508.65 1948.34 1508.62 1955.28 1508.52C1961.21 1508.42 1967.18 1508.26 1972.93 1508.05C1985.26 1507.5 1997.58 1506.66 2008.7 1505.59C2065.18 1499.46 2119.58 1486.42 2171.2 1466.79C2216.92 1449.35 2260.58 1426.71 2301.51 1399.17C2302.13 1398.74 2302.76 1398.31 2303.39 1397.88C2304.18 1397.34 2304.96 1396.8 2305.72 1396.27C2308.51 1394.33 2311.3 1392.39 2313.8 1390.65C2317.63 1387.95 2321.42 1385.22 2325.14 1382.49C2329 1379.64 2332.82 1376.74 2336.63 1373.8C2337.89 1372.81 2339.18 1371.81 2340.44 1370.83C2346.45 1366.11 2352.38 1361.28 2358.24 1356.34C2359.58 1355.18 2361.19 1353.8 2362.94 1352.29C2367.89 1347.96 2372.82 1343.52 2377.69 1339C2388.8 1328.5 2402.69 1314.58 2414.4 1302.26C2415.33 1301.29 2416.24 1300.32 2417.13 1299.37C2431.74 1283.47 2445.41 1267.11 2457.64 1250.8C2469.03 1235.6 2479.67 1220.13 2489.56 1204.37C2516.8 1160.7 2538.67 1114.13 2554.75 1065.63C2567.57 1026.65 2576.75 986.16 2582.18 944.361C2582.52 941.687 2582.84 939.01 2583.14 936.331C2583.9 929.57 2584.55 922.811 2585.1 916.056C2585.88 906.096 2586.44 896.034 2586.78 885.927C2586.91 881.129 2587 876.273 2587.05 871.389C2587.18 850.783 2586.51 829.267 2585.04 809.997C2584.99 809.362 2584.94 808.729 2584.89 808.095C2583.26 789.026 2580.78 770.078 2577.46 751.299C2569.85 708.536 2557.89 666.444 2541.84 625.876C2534.01 606.187 2525.18 586.838 2515.37 567.892C2491.72 522.437 2462.42 479.397 2427.72 439.323C2415.23 425.359 2400.91 410.306 2388.4 398.039C2384.01 393.83 2379.57 389.682 2375.07 385.598C2358.11 370.35 2339.71 355.363 2321.25 341.741C2316.09 337.973 2310.87 334.283 2305.61 330.67C2300.74 327.381 2295.47 323.879 2290.32 320.505C2255.34 297.941 2218.2 278.764 2179.47 263.435C2175.85 262.003 2172.24 260.61 2168.65 259.253C2161.39 256.528 2153.96 253.874 2146.35 251.285C2144.63 250.704 2142.92 250.13 2141.2 249.567C2137.19 248.25 2133.18 246.978 2129.17 245.749C2104.63 238.313 2079.55 232.353 2053.79 227.822C2034.61 224.508 2015.01 221.897 1996.72 220.319C1989.93 219.732 1983.03 219.268 1976.05 218.921C1959.37 218.379 1935.88 218.309 1917.39 218.709C1900.6 219.383 1883.78 220.665 1867.26 222.534C1862.13 223.167 1857 223.855 1851.9 224.596C1823.29 228.752 1795.24 234.562 1770.08 241.603C1767.72 242.287 1764.7 243.176 1761.72 244.068C1758.52 245.023 1756.05 245.769 1754.11 246.321C1752.64 246.757 1751.5 247.073 1750.6 247.279C1750.18 247.395 1749.86 247.481 1749.66 247.525C1749.37 247.59 1749.1 247.607 1748.83 247.568C1748.23 247.6 1747.85 247.51 1747.55 247.309C1746.7 246.949 1746.36 246.063 1745.64 244.683C1745.6 244.595 1745.54 244.497 1745.48 244.387C1744.98 243.64 1744.41 242.739 1743.75 241.662C1743.11 240.616 1742.45 239.543 1741.76 238.442C1735.18 228.429 1724.55 212.987 1716.39 201.624C1710.17 193.184 1703.66 184.681 1697.3 176.71C1688.23 165.536 1678.47 154.302 1668.38 143.368C1651.95 126.009 1631.36 105.992 1614.49 90.9721C1611.34 88.2817 1608.2 85.6445 1605.05 83.0668C1603.76 82.0116 1602.53 80.9758 1601.39 79.9985C1599.34 78.3141 1597.51 76.7505 1596.23 75.5766C1596.07 75.4432 1595.93 75.3103 1595.8 75.1811C1594.86 74.303 1594.3 73.7065 1594.28 73.5385C1594.27 73.4208 1594.41 73.2537 1594.68 73.0395C1594.71 72.9795 1594.75 72.9252 1594.8 72.8764C1594.96 72.7156 1595.62 72.351 1596.63 71.8481C1600.95 69.5353 1610.88 65.3319 1623.12 60.5424C1627.4 58.8336 1631.7 57.158 1636.02 55.5151C1637.71 54.8575 1639.44 54.1816 1641.23 53.4877C1642.95 52.8193 1646.14 51.6823 1650.2 50.2768C1662.51 45.8496 1674.98 41.6907 1687.56 37.809C1691.9 36.4122 1695.63 35.2379 1698.22 34.4633C1709.48 31.0945 1721.24 27.9037 1733.31 24.9262C1752.03 20.2174 1770.79 16.2109 1790.04 12.8247C1816.78 7.99963 1843.5 4.49868 1869.8 2.41548C1870.79 2.33603 1871.78 2.25885 1872.77 2.18403C1872.97 2.16924 1873.16 2.15472 1873.36 2.14009C1873.59 2.12266 1873.83 2.1055 1874.06 2.08833C1874.09 2.08558 1874.13 2.08326 1874.17 2.08052C1881.07 1.49244 1888.08 0.955835 1895.22 0.469188C1895.85 0.426427 1896.69 0.390694 1897.73 0.35786C1899.24 0.280325 1901.69 0.227419 1904.86 0.191844Z" fill="#0083CB"/>
</svg>
