<svg width="2795" height="1290" viewBox="0 0 2795 1290" fill="none" xmlns="http://www.w3.org/2000/svg">
<path d="M2706.73 1065.23C2709.54 1065.15 2713.23 1065.18 2717.21 1065.29C2717.55 1065.3 2717.9 1065.31 2718.25 1065.31C2719.31 1065.33 2720.4 1065.36 2721.5 1065.39C2722.26 1065.41 2723.01 1065.43 2723.76 1065.45C2728.66 1065.62 2733.15 1065.93 2737.39 1066.43C2740.5 1066.72 2743.02 1067.04 2744.5 1067.37C2745.41 1067.57 2746.32 1067.79 2747.23 1068.01C2757.19 1070.07 2766.43 1073.48 2777.5 1078.87C2780.54 1080.35 2782.95 1081.46 2784.81 1082.4C2785.67 1082.83 2786.4 1083.23 2787.03 1083.61C2788.91 1084.77 2789.79 1085.8 2789.86 1087.27C2789.98 1089.61 2788.07 1093.07 2784.94 1099.92C2784.09 1101.77 2783.27 1103.55 2782.51 1105.18C2781.75 1106.81 2781.06 1108.3 2780.47 1109.55C2779.28 1112.07 2778.49 1113.69 2778.38 1113.81C2778.36 1113.83 2778.31 1113.83 2778.21 1113.81C2778.14 1113.8 2778.05 1113.77 2777.94 1113.73C2777.85 1113.84 2777.78 1113.89 2777.74 1113.89L2777.74 1113.89C2777.46 1113.89 2775.99 1113.19 2773.98 1112.13C2773.13 1111.69 2772.19 1111.18 2771.2 1110.63C2770.88 1110.47 2770.55 1110.31 2770.22 1110.14C2769.58 1109.81 2768.92 1109.47 2768.25 1109.12C2766.3 1108.1 2764.34 1107.14 2762.38 1106.23C2761.6 1105.87 2760.81 1105.51 2760.03 1105.17C2758.46 1104.48 2756.89 1103.83 2755.33 1103.22C2754.55 1102.91 2753.77 1102.61 2752.99 1102.32C2752.21 1102.03 2751.43 1101.75 2750.65 1101.48C2749.09 1100.94 2747.54 1100.43 2746 1099.96C2742.91 1099.01 2739.84 1098.21 2736.82 1097.54C2735.94 1097.35 2735.07 1097.16 2734.2 1096.99C2729.48 1096.09 2724.8 1095.49 2720.28 1095.2C2719.96 1095.18 2719.65 1095.17 2719.34 1095.15C2716.9 1095.04 2714.52 1095.02 2712.21 1095.1C2711.22 1095.13 2710.24 1095.18 2709.28 1095.25C2707.67 1095.37 2706.1 1095.53 2704.57 1095.75C2703.35 1095.92 2702.15 1096.12 2700.98 1096.35C2696.89 1097.16 2693.15 1098.33 2689.85 1099.86C2689.76 1099.9 2689.67 1099.95 2689.58 1099.99C2681.68 1104.01 2676.64 1110.05 2674.8 1116.8C2674.61 1117.52 2674.46 1118.25 2674.34 1118.99C2674.32 1119.21 2674.29 1119.43 2674.27 1119.66C2674.23 1120.12 2674.2 1120.6 2674.18 1121.08C2674.18 1121.32 2674.17 1121.56 2674.17 1121.81C2674.16 1124.49 2674.57 1127.35 2675.45 1130.38C2675.54 1130.67 2675.62 1130.95 2675.71 1131.22C2675.77 1131.41 2675.83 1131.6 2675.89 1131.78C2676.82 1134.1 2678.12 1136.39 2679.78 1138.59C2679.84 1138.65 2679.89 1138.72 2679.94 1138.78C2680.74 1139.7 2681.69 1140.68 2682.82 1141.81C2688.09 1147.01 2692.84 1150.01 2705.77 1154.92C2710.66 1156.77 2716.73 1158.9 2724.44 1161.52C2733.88 1164.55 2742.05 1167.36 2748.42 1169.74C2754.53 1171.9 2756.96 1172.9 2759.82 1174.26C2761.05 1174.79 2762.18 1175.3 2763.22 1175.81C2763.37 1175.86 2763.47 1175.89 2763.51 1175.89L2763.59 1175.9C2764.17 1175.98 2765.74 1176.89 2767.72 1178.21C2770.17 1179.67 2772.31 1181.21 2774.78 1183.11C2780.22 1187.3 2784.49 1191.92 2787.68 1197.13C2789.51 1199.94 2790.92 1202.82 2791.98 1205.97C2792.04 1206.13 2792.1 1206.3 2792.16 1206.46C2792.88 1208.47 2793.47 1211.01 2793.91 1213.83C2794.64 1217.82 2794.99 1222.09 2794.99 1226.69C2794.98 1228.62 2794.9 1230.52 2794.75 1232.37C2794.56 1235.67 2794.17 1238.75 2793.58 1241.28C2793.31 1242.42 2793.01 1243.55 2792.66 1244.67C2792.39 1245.64 2792.09 1246.6 2791.76 1247.54C2791.61 1247.98 2791.45 1248.42 2791.29 1248.85C2791.04 1249.49 2790.78 1250.13 2790.51 1250.77C2790.33 1251.19 2790.14 1251.61 2789.95 1252.03C2789.66 1252.65 2789.35 1253.27 2789.03 1253.88C2788.82 1254.29 2788.6 1254.69 2788.38 1255.1C2787.48 1256.71 2786.48 1258.28 2785.38 1259.83C2782.19 1264.53 2778.21 1268.75 2773.49 1272.45C2772.56 1273.22 2771.61 1273.95 2770.64 1274.65C2770.2 1274.97 2769.75 1275.28 2769.29 1275.58C2767.79 1276.59 2766.22 1277.53 2764.52 1278.45C2761.54 1280.14 2758.39 1281.64 2755.08 1282.93C2750.16 1285.08 2745.93 1286.54 2741.31 1287.51C2736.31 1288.72 2731.49 1289.15 2723.61 1289.28C2720.76 1289.35 2717.59 1289.38 2714 1289.37C2706.16 1289.36 2701.18 1289.3 2697.33 1289.03C2693.36 1288.8 2690.72 1288.37 2687.42 1287.55C2686.81 1287.41 2686.19 1287.26 2685.53 1287.09C2682.29 1286.27 2678.81 1285.22 2675.27 1284.01C2669.1 1281.94 2663.22 1279.54 2657.62 1276.82C2654.57 1275.36 2651.72 1273.86 2649.2 1272.38C2647.01 1271.14 2644.94 1269.86 2643 1268.57C2640.51 1266.9 2638 1265.08 2635.73 1263.32C2635.21 1262.93 2634.7 1262.52 2634.19 1262.12C2633.34 1261.45 2632.53 1260.77 2631.77 1260.12C2630.6 1259.14 2629.61 1258.25 2628.84 1257.49C2627.68 1256.35 2627 1255.48 2627 1255.05C2627 1254.44 2628.98 1250.27 2631.43 1245.42C2632.79 1242.71 2634.29 1239.8 2635.65 1237.22C2635.82 1236.91 2635.98 1236.61 2636.13 1236.31C2636.25 1236.1 2636.36 1235.89 2636.47 1235.69C2637.21 1234.3 2637.9 1233.03 2638.5 1231.98C2638.53 1231.94 2638.55 1231.89 2638.58 1231.85C2638.92 1231.25 2639.22 1230.75 2639.47 1230.36C2639.55 1230.22 2639.63 1230.09 2639.71 1229.97C2640.1 1229.37 2640.38 1228.99 2640.53 1228.91C2640.55 1228.9 2640.57 1228.89 2640.59 1228.89C2640.59 1228.89 2640.6 1228.89 2640.62 1228.9C2641.03 1229.04 2643.97 1231.36 2647.28 1234.17C2647.56 1234.41 2647.85 1234.64 2648.13 1234.88C2648.14 1234.88 2648.14 1234.89 2648.15 1234.89C2648.3 1235.02 2648.46 1235.15 2648.62 1235.29C2649 1235.6 2649.39 1235.91 2649.77 1236.22C2650.19 1236.55 2650.62 1236.89 2651.04 1237.22C2651.12 1237.27 2651.2 1237.33 2651.27 1237.39C2651.72 1237.74 2652.17 1238.08 2652.63 1238.42C2653.34 1238.95 2654.06 1239.48 2654.79 1239.99C2655.83 1240.73 2656.89 1241.45 2657.96 1242.16C2658.31 1242.39 2658.66 1242.62 2659.01 1242.85C2659.47 1243.15 2659.93 1243.44 2660.39 1243.73C2660.54 1243.82 2660.69 1243.91 2660.83 1244C2662.54 1245.05 2664.27 1246.07 2666.04 1247.04C2666.52 1247.31 2667.01 1247.57 2667.49 1247.83C2667.96 1248.07 2668.42 1248.32 2668.89 1248.56C2671.57 1249.94 2674.31 1251.22 2677.09 1252.39C2677.37 1252.51 2677.64 1252.63 2677.92 1252.74C2683.01 1254.85 2688.24 1256.6 2693.57 1257.97C2693.92 1258.06 2694.28 1258.15 2694.64 1258.24C2694.74 1258.26 2694.83 1258.28 2694.93 1258.3C2699.18 1259.22 2704.05 1259.84 2708.96 1260.16C2709.22 1260.17 2709.47 1260.19 2709.72 1260.2C2718.26 1260.64 2727.03 1260.13 2732.74 1258.6C2735.42 1257.89 2737.94 1257.03 2740.27 1256.05C2742.83 1254.96 2745.17 1253.74 2747.28 1252.39C2751.87 1249.42 2755.37 1245.81 2757.67 1241.69C2758.55 1240.1 2759.25 1238.44 2759.77 1236.72C2760.7 1232.71 2760.84 1227.52 2760.21 1223.07C2760.03 1222.19 2759.81 1221.31 2759.55 1220.41C2758.2 1215.77 2756.7 1213.44 2752.18 1208.91C2747.06 1203.79 2742.74 1200.94 2730.08 1196.2C2723.6 1193.86 2714.68 1190.78 2705.84 1187.86C2702.4 1186.72 2699.22 1185.65 2696.27 1184.64C2693.34 1183.64 2690.63 1182.68 2688.1 1181.76C2680.75 1179.1 2675.15 1176.79 2670.6 1174.52C2670.54 1174.49 2670.48 1174.47 2670.42 1174.44L2670.39 1174.42C2670.12 1174.28 2669.85 1174.15 2669.59 1174.01C2665.5 1171.9 2662.29 1169.81 2659.39 1167.45C2657.78 1166.16 2656.29 1164.82 2654.86 1163.37C2651.87 1160.37 2649.42 1157.51 2647.43 1154.59C2645.3 1151.47 2643.69 1148.28 2642.52 1144.79C2642.32 1144.17 2642.12 1143.55 2641.95 1142.91C2640.52 1137.89 2639.9 1132.21 2639.86 1125.26C2639.8 1116.51 2640.95 1109.34 2643.62 1102.9C2645.79 1097.64 2648.98 1092.89 2653.39 1088.12C2653.71 1087.77 2654.04 1087.42 2654.38 1087.07C2658.85 1082.41 2663.89 1078.56 2669.75 1075.41C2669.81 1075.37 2669.88 1075.34 2669.95 1075.3C2669.99 1075.28 2670.02 1075.26 2670.06 1075.24C2670.38 1075.06 2670.71 1074.89 2671.03 1074.72C2677.37 1071.41 2684.41 1068.96 2691.96 1067.47C2692 1067.46 2692.04 1067.45 2692.09 1067.44C2695.36 1066.71 2698.83 1066.06 2702.5 1065.51C2702.9 1065.45 2703.4 1065.4 2703.97 1065.36C2703.98 1065.35 2703.99 1065.35 2704 1065.35C2704.21 1065.3 2704.85 1065.26 2705.84 1065.24C2706.11 1065.23 2706.41 1065.23 2706.73 1065.23Z" fill="#0083CB"/>
<path d="M1933 1095.89H1862.01L1862 1099.39L1862 1099.43V1288.89H1833.87L1831 1288.94V1095.89H1761V1066.89H1933V1095.89Z" fill="#0083CB"/>
<path d="M1969.9 1066.89H1998.01L1998.37 1067.39L1998.41 1067.39L2052.6 1140.88C2057.66 1147.73 2062.5 1154.29 2067.53 1161.12C2075.29 1171.64 2084.48 1184.11 2093 1195.67L2115.75 1226.53C2115.75 1226.53 2115.75 1226.53 2115.75 1226.53L2122.5 1235.47L2123 1070.33V1066.89H2154V1288.94L2151.11 1288.89H2123.8L2123.35 1288.4L2122.58 1288.39L2118.82 1283.29C2118.42 1282.8 2118.02 1282.28 2117.62 1281.75C2116.85 1280.74 2116.11 1279.72 2115.49 1278.82C2115.35 1278.62 2115.2 1278.39 2115.02 1278.14L2081.22 1232.27C2080.92 1231.87 2080.64 1231.49 2080.38 1231.15C2077.59 1227.45 2074.01 1222.59 2072.41 1220.3L1998.5 1119.99L1997.99 1288.89H1967V1066.84L1969.9 1066.89Z" fill="#0083CB"/>
<path fill-rule="evenodd" clip-rule="evenodd" d="M1180.25 1066.9C1196.8 1066.9 1209.71 1067.01 1220.12 1067.34C1227.26 1067.51 1232.72 1067.72 1235.29 1067.95C1238.76 1068.25 1242.11 1068.67 1245.34 1069.21C1253.68 1070.42 1259.81 1072.23 1266.13 1074.94C1268.61 1075.95 1271 1077.06 1273.28 1078.28C1280.02 1081.67 1283.33 1084.15 1289.01 1089.85C1289.89 1090.73 1290.74 1091.64 1291.57 1092.56C1299.09 1100.97 1304.1 1110.76 1306.64 1122.07C1306.95 1123.39 1307.21 1124.73 1307.45 1126.09C1307.55 1126.65 1307.64 1127.22 1307.72 1127.79C1307.99 1129.56 1308.2 1131.35 1308.35 1133.18C1308.42 1133.95 1308.47 1134.72 1308.52 1135.51C1308.61 1137.04 1308.66 1138.59 1308.67 1140.17C1308.7 1143.43 1308.56 1146.78 1308.26 1150.22C1308.19 1151 1308.12 1151.78 1308.03 1152.56C1307.7 1155.68 1307.28 1158.62 1306.76 1161.39C1306.4 1163.33 1305.99 1165.2 1305.53 1166.99C1305.4 1167.51 1305.26 1168.02 1305.12 1168.52C1304.77 1169.78 1304.39 1171 1303.98 1172.2C1303.81 1172.68 1303.64 1173.15 1303.47 1173.62C1303.38 1173.85 1303.3 1174.09 1303.21 1174.32C1302.85 1175.25 1302.47 1176.17 1302.08 1177.07C1301.19 1179.09 1300.19 1181.04 1299.08 1182.94C1298.83 1183.36 1298.58 1183.78 1298.33 1184.19C1297.29 1185.86 1296.17 1187.49 1294.95 1189.09C1294.34 1189.9 1293.7 1190.7 1293.04 1191.49C1292.87 1191.69 1292.71 1191.89 1292.54 1192.09C1292.2 1192.48 1291.86 1192.88 1291.51 1193.28C1291.16 1193.67 1290.8 1194.07 1290.44 1194.46C1290.23 1194.68 1290.02 1194.9 1289.81 1195.13C1289.52 1195.44 1289.23 1195.74 1288.93 1196.05C1288.87 1196.11 1288.81 1196.18 1288.75 1196.24C1288.37 1196.63 1287.98 1197.03 1287.58 1197.42C1284.23 1200.76 1281.63 1203.07 1278.94 1204.99C1276.56 1206.7 1274.1 1208.11 1271 1209.63C1256.73 1216.64 1246.49 1219.03 1220.22 1219.68C1216.2 1219.78 1211.79 1219.84 1206.94 1219.87C1205.72 1219.88 1204.47 1219.88 1203.19 1219.89L1199.28 1219.89H1168V1288.89H1137V1066.89L1180.25 1066.9ZM1168 1192.12L1201.75 1191.63C1204.38 1191.59 1206.85 1191.55 1209.17 1191.5C1210.91 1191.47 1212.56 1191.44 1214.14 1191.4C1226.54 1191.11 1234.15 1190.66 1239.99 1189.63C1240.72 1189.46 1241.45 1189.28 1242.21 1189.07C1250.58 1186.82 1257.06 1183.91 1262.12 1180.12C1267.23 1176.15 1271.3 1170.92 1274.15 1164.88C1277.65 1157.23 1279.16 1148.4 1278.67 1139.81C1278.67 1139.76 1278.66 1139.72 1278.66 1139.68C1278.55 1138.15 1278.38 1136.61 1278.14 1135.06C1276.24 1122.84 1270.71 1113.29 1261.81 1106.66C1257 1103.36 1250.82 1100.46 1244.65 1098.64C1243.09 1098.21 1241.47 1097.82 1239.79 1097.48C1239.6 1097.44 1239.41 1097.4 1239.21 1097.36C1238.82 1097.29 1238.42 1097.22 1238.01 1097.15C1237.59 1097.08 1237.16 1097.02 1236.72 1096.96C1236.27 1096.89 1235.8 1096.84 1235.32 1096.78C1234.19 1096.65 1232.94 1096.54 1231.53 1096.45C1231.4 1096.44 1231.27 1096.43 1231.13 1096.42C1225.5 1096.07 1217.39 1095.92 1204.51 1095.9C1203.08 1095.89 1201.59 1095.89 1200.04 1095.89H1168V1192.12Z" fill="#0083CB"/>
<path fill-rule="evenodd" clip-rule="evenodd" d="M1419.02 1066.89C1420.74 1066.89 1422.39 1066.91 1423.94 1066.93L1434.5 1066.95L1434.79 1067.62C1434.93 1067.67 1435 1067.71 1435 1067.76C1435 1067.88 1435.47 1069.06 1436.28 1071L1482.93 1176.72C1497.68 1210.15 1511 1240.38 1519.99 1260.81C1522.98 1267.57 1525.13 1272.44 1526.11 1274.63C1527.61 1278.01 1528.99 1281.16 1530.04 1283.59C1530.73 1285.15 1531.31 1286.55 1531.66 1287.44C1531.72 1287.59 1531.76 1287.67 1531.77 1287.69C1531.77 1287.7 1531.77 1287.72 1531.77 1287.73C1531.8 1287.81 1531.83 1287.89 1531.85 1287.96C1531.95 1288.21 1532 1288.36 1532 1288.4C1532 1288.4 1532 1288.41 1531.99 1288.41C1532 1288.43 1532 1288.44 1532 1288.45C1532 1288.58 1530.12 1288.67 1527.08 1288.71C1527.01 1288.71 1526.93 1288.71 1526.86 1288.71C1524.25 1288.84 1520.48 1288.89 1515.25 1288.89H1498.33L1478.7 1243.69L1478.2 1242.52C1477.72 1241.46 1477.25 1240.37 1476.84 1239.42L1475.08 1235.39H1359.86L1348.74 1261.39C1347.71 1263.81 1346.68 1266.17 1345.7 1268.42L1337.15 1288.39L1334.98 1288.43C1332.15 1288.71 1326.07 1288.86 1320.08 1288.86C1312.01 1288.94 1304 1288.83 1304 1288.44C1304 1288.22 1305.04 1285.81 1306.41 1282.86C1306.52 1282.6 1306.64 1282.33 1306.76 1282.07C1307.53 1280.33 1308.46 1278.24 1309.5 1275.89C1317.57 1257.71 1334.12 1220.41 1353.01 1177.89C1357.89 1166.9 1362.61 1156.26 1367.07 1146.21C1367.4 1145.33 1368.77 1142.25 1370.4 1138.73C1370.4 1138.72 1370.4 1138.72 1370.4 1138.71C1376.87 1124.14 1382.7 1111.03 1387.52 1100.17C1388.24 1098.53 1388.95 1096.91 1389.66 1095.32C1390.9 1092.52 1392.1 1089.82 1393.23 1087.29C1398.48 1075.45 1401.6 1068.4 1401.71 1068.14C1401.72 1068.1 1401.75 1068.07 1401.78 1068.03L1402.28 1066.89L1411.74 1066.91C1413.7 1066.89 1416.1 1066.89 1419.02 1066.89ZM1417.61 1102.75C1416.39 1104.78 1406.76 1126.62 1395.25 1153.46L1395.04 1153.95C1391.57 1162.06 1388.29 1169.77 1385.38 1176.67C1382.32 1183.92 1379.66 1190.26 1377.62 1195.21C1377.31 1195.96 1377.02 1196.68 1376.74 1197.37C1375.26 1200.97 1374.19 1203.64 1373.64 1205.12C1373.55 1205.38 1373.46 1205.6 1373.4 1205.79C1373.4 1205.8 1373.41 1205.8 1373.41 1205.81C1373.71 1206.06 1374.39 1206.25 1375.83 1206.4C1375.95 1206.42 1376.08 1206.43 1376.21 1206.44C1377.11 1206.52 1378.27 1206.59 1379.76 1206.64C1383.19 1206.68 1387.83 1206.71 1393.29 1206.72C1400.45 1206.72 1409.03 1206.71 1418.21 1206.65L1459.12 1206.41C1461.1 1206.28 1462.15 1206.11 1462.52 1205.9L1452.31 1182.39C1449.52 1175.96 1446.61 1169.25 1444.15 1163.55L1440.41 1154.95C1433.6 1139.28 1427.43 1125.07 1423.25 1115.42L1417.95 1103.32C1417.82 1103.09 1417.71 1102.9 1417.61 1102.75Z" fill="#0083CB"/>
<path fill-rule="evenodd" clip-rule="evenodd" d="M1584.84 1066.9L1605.75 1066.9C1628.49 1066.9 1644.31 1067.1 1656.17 1067.75C1663 1067.96 1667.02 1068.24 1670.27 1068.69C1670.32 1068.69 1670.36 1068.7 1670.41 1068.71L1670.44 1068.71C1670.95 1068.78 1671.45 1068.86 1671.94 1068.94C1671.99 1068.95 1672.05 1068.96 1672.1 1068.97C1672.25 1068.99 1672.4 1069.02 1672.54 1069.04C1672.67 1069.06 1672.79 1069.09 1672.92 1069.11C1673.04 1069.13 1673.16 1069.15 1673.28 1069.18C1673.43 1069.21 1673.58 1069.23 1673.72 1069.26C1674.53 1069.42 1675.34 1069.59 1676.19 1069.78C1676.86 1069.92 1677.52 1070.07 1678.17 1070.23C1678.58 1070.33 1678.98 1070.42 1679.39 1070.52C1683.49 1071.42 1687.1 1072.52 1690.66 1073.89C1696.42 1075.99 1701.48 1078.49 1706.06 1081.52C1707.75 1082.6 1709.35 1083.74 1710.91 1084.98C1715.18 1088.33 1718.99 1092.2 1722.29 1096.5C1725.91 1101.1 1728.72 1105.96 1730.82 1111.34C1731.29 1112.47 1731.73 1113.61 1732.15 1114.78C1732.19 1114.91 1732.24 1115.04 1732.28 1115.16C1732.35 1115.37 1732.42 1115.57 1732.49 1115.77C1732.51 1115.84 1732.54 1115.92 1732.56 1115.99C1732.63 1116.21 1732.71 1116.43 1732.78 1116.65C1732.82 1116.77 1732.86 1116.9 1732.9 1117.02C1732.96 1117.21 1733.01 1117.4 1733.07 1117.58C1733.11 1117.71 1733.15 1117.83 1733.19 1117.96C1733.38 1118.6 1733.56 1119.24 1733.74 1119.89C1734.55 1122.87 1735.01 1125.99 1735.26 1130.65C1735.46 1132.62 1735.62 1134.65 1735.72 1136.75C1735.75 1137.25 1735.77 1137.75 1735.79 1138.24C1735.79 1138.29 1735.79 1138.34 1735.79 1138.39C1736.02 1144.48 1735.77 1150.25 1735.07 1155.7C1734.76 1159.44 1734.31 1162.67 1733.72 1164.89C1733.48 1165.8 1733.21 1166.7 1732.93 1167.61C1732.27 1169.77 1731.46 1171.93 1730.44 1174.27C1730.42 1174.33 1730.39 1174.38 1730.37 1174.44C1730.21 1174.8 1730.05 1175.17 1729.88 1175.54C1728.62 1178.56 1727.15 1181.44 1725.49 1184.19C1721.6 1190.75 1716.63 1196.45 1710.66 1201.21C1705.9 1205.3 1700.73 1208.62 1695.38 1210.9C1694.46 1211.32 1693.58 1211.68 1692.75 1211.97C1692.6 1212.02 1692.46 1212.08 1692.31 1212.13C1690.79 1213.04 1689.75 1213.79 1689.5 1214.19C1689.88 1214.81 1690.54 1215.84 1691.44 1217.21C1695.37 1223.22 1703.93 1235.87 1713.88 1250.34C1717.83 1256.08 1721.56 1261.56 1724.89 1266.47C1727.89 1270.8 1730.65 1274.77 1732.94 1278.03C1735.65 1281.9 1737.96 1285.52 1738.73 1287.06C1738.9 1287.42 1739 1287.67 1739 1287.78C1739 1287.81 1738.99 1287.83 1738.98 1287.85C1738.99 1287.88 1739 1287.9 1739 1287.91C1739 1288.16 1738.14 1288.36 1736.44 1288.49C1736.25 1288.51 1736.04 1288.54 1735.83 1288.55C1733.36 1288.76 1729.42 1288.87 1723.82 1288.89C1723.12 1288.89 1722.39 1288.89 1721.64 1288.89H1704.23L1703.91 1288.39L1703.79 1288.39L1682.15 1254.1C1670.24 1235.24 1660.16 1219.83 1659.75 1219.85C1659.54 1219.86 1655.64 1219.87 1649.53 1219.88L1599.33 1219.89L1593 1219.94V1288.89H1562V1066.69L1584.84 1066.9ZM1593 1192.12L1627.25 1191.61C1629.59 1191.57 1631.81 1191.54 1633.91 1191.5C1639.15 1191.41 1643.68 1191.31 1647.62 1191.18C1652.35 1191.03 1656.25 1190.83 1659.57 1190.57C1661.23 1190.44 1662.74 1190.29 1664.14 1190.12C1665.07 1190 1665.96 1189.88 1666.8 1189.75C1667.64 1189.61 1668.44 1189.47 1669.21 1189.31C1671.51 1188.84 1673.53 1188.27 1675.52 1187.55C1675.85 1187.43 1676.18 1187.31 1676.51 1187.19C1678.17 1186.55 1679.82 1185.82 1681.64 1184.97C1681.69 1184.95 1681.74 1184.93 1681.79 1184.9C1689.08 1181.45 1695.26 1175.87 1699.5 1169.19C1701.68 1165.63 1703.34 1161.67 1704.47 1157.36C1705.36 1153.91 1705.85 1148.96 1705.92 1143.98C1705.94 1142.09 1705.9 1140.2 1705.8 1138.38C1705.57 1134.78 1705.13 1131.25 1704.62 1129.31C1704.28 1128.04 1703.9 1126.8 1703.47 1125.6C1702.05 1121.63 1700.1 1118.02 1697.66 1114.78C1697.6 1114.69 1697.53 1114.61 1697.47 1114.52C1697.33 1114.34 1697.18 1114.15 1697.04 1113.97C1696.74 1113.61 1696.45 1113.25 1696.14 1112.89C1695.84 1112.54 1695.53 1112.19 1695.21 1111.85C1694.73 1111.33 1694.24 1110.83 1693.73 1110.34C1692.04 1108.69 1690.18 1107.18 1688.15 1105.79C1687.74 1105.51 1687.33 1105.24 1686.91 1104.97C1686.7 1104.84 1686.49 1104.71 1686.28 1104.58C1685.85 1104.31 1685.42 1104.06 1684.98 1103.8C1682.57 1102.42 1679.95 1101.18 1677.13 1100.1C1676.62 1099.91 1676.1 1099.72 1675.57 1099.53C1674.52 1099.16 1673.44 1098.81 1672.33 1098.48C1672.22 1098.44 1672.1 1098.41 1671.99 1098.38C1671.81 1098.33 1671.63 1098.27 1671.46 1098.23C1671.38 1098.21 1671.3 1098.19 1671.22 1098.17C1670.91 1098.09 1670.61 1098.01 1670.29 1097.94C1669.59 1097.77 1668.87 1097.63 1668.08 1097.5C1667.84 1097.45 1667.6 1097.42 1667.34 1097.38C1667.25 1097.36 1667.15 1097.35 1667.06 1097.34C1666.15 1097.22 1665.13 1097.11 1663.95 1097.02C1663.37 1096.97 1662.74 1096.92 1662.07 1096.88C1657.37 1096.58 1650.5 1096.4 1639.61 1096.26C1636.5 1096.21 1633.06 1096.18 1629.25 1096.14L1593 1095.76V1192.12Z" fill="#0083CB"/>
<path d="M2370 1095.89H2248V1162.89H2358V1190.89H2248V1259.89H2374V1288.89H2217V1066.89H2370V1095.89Z" fill="#0083CB"/>
<path fill-rule="evenodd" clip-rule="evenodd" d="M2444.84 1066.9L2465.75 1066.9C2488.49 1066.9 2504.31 1067.1 2516.17 1067.75C2523 1067.96 2527.02 1068.24 2530.27 1068.69C2530.32 1068.69 2530.36 1068.7 2530.41 1068.71L2530.44 1068.71C2530.94 1068.78 2531.42 1068.85 2531.89 1068.93C2531.96 1068.94 2532.03 1068.95 2532.1 1068.97C2532.25 1068.99 2532.4 1069.02 2532.54 1069.04C2532.67 1069.06 2532.79 1069.09 2532.92 1069.11C2533.04 1069.13 2533.16 1069.15 2533.28 1069.18C2533.43 1069.21 2533.58 1069.23 2533.72 1069.26C2534.53 1069.42 2535.34 1069.59 2536.19 1069.78C2536.86 1069.92 2537.52 1070.07 2538.17 1070.23C2538.58 1070.33 2538.98 1070.42 2539.39 1070.52C2543.49 1071.42 2547.1 1072.52 2550.66 1073.89C2556.42 1075.99 2561.49 1078.5 2566.08 1081.53C2567.76 1082.6 2569.36 1083.75 2570.91 1084.98C2575.18 1088.33 2578.99 1092.2 2582.29 1096.5C2585.91 1101.1 2588.72 1105.96 2590.82 1111.34C2591.29 1112.47 2591.73 1113.61 2592.15 1114.78C2592.19 1114.91 2592.24 1115.04 2592.28 1115.16C2592.35 1115.37 2592.42 1115.57 2592.49 1115.77C2592.51 1115.84 2592.54 1115.92 2592.56 1115.99C2592.63 1116.21 2592.71 1116.43 2592.78 1116.65C2592.82 1116.77 2592.86 1116.9 2592.9 1117.02C2592.96 1117.21 2593.01 1117.4 2593.07 1117.58C2593.11 1117.71 2593.15 1117.83 2593.19 1117.96C2593.38 1118.6 2593.56 1119.24 2593.74 1119.89C2594.55 1122.87 2595.01 1125.99 2595.26 1130.65C2595.46 1132.62 2595.62 1134.65 2595.72 1136.75C2595.75 1137.25 2595.77 1137.75 2595.79 1138.24C2595.79 1138.29 2595.79 1138.34 2595.79 1138.39C2596.02 1144.48 2595.77 1150.25 2595.07 1155.7C2594.76 1159.44 2594.31 1162.67 2593.72 1164.89C2593.48 1165.8 2593.21 1166.7 2592.93 1167.61C2592.27 1169.77 2591.46 1171.93 2590.44 1174.27C2590.42 1174.33 2590.39 1174.38 2590.37 1174.44C2590.21 1174.8 2590.04 1175.18 2589.87 1175.56C2588.61 1178.57 2587.15 1181.45 2585.49 1184.19C2581.6 1190.75 2576.63 1196.45 2570.66 1201.21C2565.9 1205.3 2560.73 1208.62 2555.38 1210.9C2554.46 1211.32 2553.58 1211.68 2552.75 1211.97C2552.6 1212.02 2552.46 1212.08 2552.31 1212.13C2550.79 1213.04 2549.75 1213.79 2549.5 1214.19C2549.88 1214.81 2550.54 1215.84 2551.44 1217.21C2555.37 1223.22 2563.93 1235.87 2573.88 1250.34C2577.83 1256.08 2581.57 1261.56 2584.9 1266.47C2587.9 1270.81 2590.65 1274.77 2592.94 1278.03C2595.43 1281.58 2597.57 1284.92 2598.5 1286.64C2598.82 1287.23 2599 1287.63 2599 1287.78C2599 1287.81 2598.99 1287.83 2598.98 1287.85C2598.99 1287.88 2599 1287.9 2599 1287.91C2599 1288.16 2598.14 1288.36 2596.44 1288.49C2596.25 1288.51 2596.04 1288.54 2595.83 1288.55C2593.36 1288.76 2589.42 1288.87 2583.82 1288.89C2583.12 1288.89 2582.39 1288.89 2581.64 1288.89H2564.23L2563.91 1288.39L2563.79 1288.39L2542.15 1254.1C2530.24 1235.24 2520.16 1219.83 2519.75 1219.85C2519.54 1219.86 2515.64 1219.87 2509.53 1219.88L2459.33 1219.89L2453 1219.94V1288.89H2422V1066.69L2444.84 1066.9ZM2453 1192.12L2487.25 1191.61C2489.59 1191.57 2491.81 1191.54 2493.91 1191.5C2499.15 1191.41 2503.68 1191.31 2507.62 1191.18C2512.35 1191.03 2516.25 1190.83 2519.57 1190.57C2521.23 1190.44 2522.74 1190.29 2524.14 1190.12C2525.07 1190 2525.96 1189.88 2526.8 1189.75C2527.64 1189.61 2528.44 1189.47 2529.21 1189.31C2531.51 1188.84 2533.53 1188.27 2535.52 1187.55C2535.85 1187.43 2536.18 1187.31 2536.51 1187.19C2538.17 1186.55 2539.82 1185.82 2541.64 1184.97C2541.69 1184.95 2541.74 1184.93 2541.79 1184.9C2549.08 1181.45 2555.26 1175.87 2559.5 1169.19C2561.68 1165.63 2563.34 1161.67 2564.47 1157.36C2565.36 1153.91 2565.85 1148.96 2565.92 1143.98C2565.94 1142.09 2565.9 1140.2 2565.8 1138.38C2565.57 1134.78 2565.13 1131.25 2564.62 1129.31C2564.28 1128.04 2563.9 1126.8 2563.47 1125.6C2562.05 1121.63 2560.1 1118.02 2557.66 1114.78C2557.6 1114.69 2557.53 1114.61 2557.47 1114.52C2557.33 1114.34 2557.18 1114.15 2557.04 1113.97C2556.74 1113.61 2556.45 1113.25 2556.14 1112.89C2555.84 1112.54 2555.53 1112.19 2555.21 1111.85C2554.73 1111.33 2554.24 1110.83 2553.73 1110.34C2552.04 1108.69 2550.18 1107.18 2548.15 1105.79C2547.74 1105.51 2547.33 1105.24 2546.91 1104.97C2546.7 1104.84 2546.49 1104.71 2546.28 1104.58C2545.85 1104.31 2545.42 1104.06 2544.98 1103.8C2542.57 1102.42 2539.95 1101.18 2537.13 1100.1C2536.62 1099.91 2536.1 1099.72 2535.57 1099.53C2534.52 1099.16 2533.44 1098.81 2532.33 1098.48C2532.22 1098.44 2532.1 1098.41 2531.99 1098.38C2531.81 1098.33 2531.63 1098.27 2531.46 1098.23C2531.38 1098.21 2531.3 1098.19 2531.22 1098.17C2530.91 1098.09 2530.61 1098.01 2530.29 1097.94C2529.59 1097.77 2528.87 1097.63 2528.08 1097.5C2527.84 1097.45 2527.6 1097.42 2527.34 1097.38C2527.25 1097.36 2527.15 1097.35 2527.06 1097.34C2526.15 1097.22 2525.13 1097.11 2523.95 1097.02C2523.37 1096.97 2522.74 1096.92 2522.07 1096.88C2517.37 1096.58 2510.5 1096.4 2499.61 1096.26C2496.5 1096.21 2493.06 1096.18 2489.25 1096.14L2453 1095.76V1192.12Z" fill="#0083CB"/>
<path fill-rule="evenodd" clip-rule="evenodd" d="M95.6104 1066.89H151.949L151.96 1066.91L152.5 1066.91L185.019 1144.64C187.593 1150.79 190.038 1156.63 192.219 1161.85L194 1166.11C212.941 1211.38 230.476 1253.33 237.372 1269.84C240.164 1276.48 242.666 1282.45 243.359 1284.14L244.286 1286.4L244.911 1287.89L244.902 1287.89L244.903 1287.89H182.261L170.874 1258.2L167.657 1249.89H164.305L77.3574 1250.37C74.6171 1250.53 73.2485 1250.74 72.832 1251L71.2568 1254.76C70.2257 1257.35 68.7681 1261.03 67.2354 1264.89L60.9561 1280.82L58.4229 1287.39L0 1287.92V1285.33C0.0002964 1285.15 0.325922 1284.22 0.944336 1282.61C1.51214 1281.13 2.32839 1279.08 3.36621 1276.51C3.4594 1276.28 3.55265 1276.05 3.64941 1275.81C4.26283 1274.29 4.94834 1272.62 5.7002 1270.79C6.38747 1269.11 7.13003 1267.31 7.92578 1265.39C8.35896 1264.34 8.80969 1263.26 9.27344 1262.14C17.7309 1241.77 31.1777 1209.98 46.25 1174.8L92.5 1066.86L95.6104 1066.89ZM121.322 1130.1C120.887 1129.41 117.042 1138.12 110.455 1154.67C105.358 1167.72 99.1395 1183.62 96.3818 1190.64L95.833 1192.04L91.4756 1203.21C91.7642 1203.29 92.5524 1203.36 93.7607 1203.44L106.132 1203.67C110.145 1203.74 115.329 1203.78 120.501 1203.78C125.65 1203.78 130.812 1203.74 134.811 1203.67L149.72 1203.39L149.677 1203.28L147.527 1197.64C146.99 1196.23 146.471 1194.87 145.971 1193.56C144.329 1189.27 141.935 1183.01 139.692 1177.17L135.945 1167.39C128.355 1147.59 121.776 1130.81 121.322 1130.1Z" fill="#0083CB"/>
<path d="M650 1113.89H534V1153.89H639V1200.89H534V1241.89H654V1287.89H476V1066.89H650V1113.89Z" fill="#0083CB"/>
<path fill-rule="evenodd" clip-rule="evenodd" d="M747.75 1067.16C776.637 1067.34 791.676 1067.46 800.711 1067.81C802.231 1067.87 803.581 1067.93 804.799 1068.01C806.013 1068.08 807.095 1068.16 808.082 1068.25C808.386 1068.28 808.68 1068.3 808.967 1068.33C812.315 1068.67 814.588 1069.14 817.5 1069.79C820.082 1070.37 822.583 1071.02 825.006 1071.73C851.559 1079.53 868.326 1095.21 876.033 1119.39C877.736 1124.73 878.714 1133.28 878.901 1142.16C878.996 1145.11 878.997 1148.06 878.903 1150.91C878.797 1154.93 878.514 1158.67 878.032 1161.69C877.536 1164.8 876.886 1167.84 876.092 1170.78C873.859 1179.33 870.51 1186.83 865.831 1193.56C865.135 1194.59 864.414 1195.6 863.669 1196.59C863.078 1197.38 862.473 1198.15 861.852 1198.91C861.478 1199.36 861.098 1199.81 860.713 1200.25C859.943 1201.14 859.151 1202.01 858.336 1202.85C857.929 1203.27 857.515 1203.68 857.097 1204.09C855.423 1205.72 853.66 1207.27 851.81 1208.71C851.347 1209.07 850.878 1209.43 850.404 1209.78C849.8 1210.22 849.186 1210.66 848.564 1211.08C846.833 1212.38 845.018 1213.66 843.117 1214.91L841.719 1215.83C841.375 1216.12 841.143 1216.34 841.049 1216.49C841.726 1217.71 849.395 1229.89 859.05 1245.06C867.401 1258.12 877.006 1273.23 882.056 1281.27C882.978 1282.73 883.601 1283.72 883.858 1284.14L886.163 1287.89L857.013 1287.87C855.67 1287.87 854.269 1287.87 852.809 1287.87L819.5 1287.85L809.525 1268.62C804.039 1258.05 797.064 1244.56 794.025 1238.65L791.657 1234.04L788.5 1227.94L746 1227.89V1287.89H688V1066.76L747.75 1067.16ZM746 1180.89L759.604 1180.88L771.25 1180.68C779.672 1180.53 785.394 1180.4 789.557 1180.2C789.603 1180.2 789.649 1180.2 789.695 1180.19C796.235 1179.66 800.977 1178.75 804.793 1177.29C804.886 1177.26 804.979 1177.22 805.071 1177.18C808.348 1175.76 811.457 1173.72 814.095 1171.32C814.174 1171.24 814.256 1171.17 814.335 1171.09C814.65 1170.79 814.954 1170.49 815.247 1170.18C815.287 1170.14 815.326 1170.1 815.366 1170.06C815.482 1169.93 815.593 1169.82 815.698 1169.71C815.833 1169.56 815.966 1169.42 816.097 1169.28C818.693 1166.4 820.398 1163.45 821.615 1159.61C821.631 1159.56 821.646 1159.5 821.662 1159.45C822.642 1156.08 823.38 1151.93 823.655 1148.32C823.775 1146.19 823.728 1144.13 823.52 1142.14C822.745 1137.35 821.461 1133.26 819.6 1129.78C819.441 1129.48 819.279 1129.19 819.112 1128.9C819.092 1128.87 819.072 1128.83 819.052 1128.8C818.066 1127.22 816.932 1125.75 815.655 1124.39C812.378 1120.95 808.152 1118.23 803.067 1116.38C801.521 1115.83 799.898 1115.38 798.201 1115.02C795.561 1114.46 786.179 1114.03 774.958 1113.92C773.465 1113.91 771.896 1113.9 770.25 1113.9L746 1113.89V1180.89Z" fill="#0083CB"/>
<path d="M1089 1113.89H973V1153.89H1078V1200.89H973V1241.89H1093V1287.89H915V1066.89H1089V1113.89Z" fill="#0083CB"/>
<path d="M287.76 1069.82L287.902 1070.25L288.442 1071.92L306.747 1125.13C312.237 1140.99 317.883 1157.38 322.216 1170.01C332.773 1200.53 340.587 1222.79 340.88 1223.12C341.248 1223.51 353.746 1188.64 368.655 1145.62L393.7 1073.34L395.633 1067.74L395.751 1067.39L425.953 1067.13C439.315 1067.01 446.778 1066.97 450.88 1067.12C454.11 1067.17 456 1067.25 456 1067.35C456 1067.36 455.998 1067.36 455.997 1067.36C455.998 1067.36 456 1067.37 456 1067.37C456 1067.65 453.3 1074.74 450.001 1083.13C449.131 1085.35 447.149 1090.41 444.331 1097.62C436.445 1117.88 425.115 1146.95 412.644 1178.89L370.285 1287.39H370.17L339.559 1287.66C335.883 1287.69 332.646 1287.71 329.794 1287.73C318.562 1287.8 313.304 1287.74 310.778 1287.39H308.778L306.677 1281.72L284.763 1225.17C284.358 1224.13 283.957 1223.1 283.557 1222.08C281.168 1215.97 279.029 1210.44 277.642 1206.79L266.445 1177.89C263.809 1171.09 261.228 1164.42 258.722 1157.95C256.08 1151.18 252.536 1142.03 249.996 1135.39C249.832 1134.96 249.662 1134.52 249.487 1134.07C247.888 1129.93 246.339 1125.91 244.849 1122.05C244.381 1120.85 243.907 1119.63 243.427 1118.39C238.476 1105.64 234.383 1095.07 231.27 1086.99C229.778 1083.16 228.608 1080.17 227.93 1078.45C227.087 1076.32 226.306 1074.28 225.664 1072.57C225.592 1072.4 225.526 1072.25 225.464 1072.11C224.659 1070.3 224 1068.39 224 1067.86C224 1067.84 224.006 1067.83 224.018 1067.82C224.007 1067.77 224 1067.73 224 1067.7C224 1067.69 224.006 1067.68 224.018 1067.67C224.013 1067.66 224.008 1067.65 224.008 1067.64C224.007 1067.55 224.714 1067.46 226.005 1067.38C228.93 1066.94 236.364 1066.89 254.312 1066.89H286.906L287.76 1069.82Z" fill="#0083CB"/>
<path d="M1027.64 14.9483C1052.04 13.8215 1076.42 14.7045 1100.4 17.5586C1116.12 19.4222 1131.64 22.1399 1146.93 25.7071C1158.38 28.3685 1169.65 31.4956 1180.71 35.085C1189.87 38.0219 1198.96 41.2737 1208 44.8399C1209.57 45.4609 1211.8 46.4155 1214.46 47.5967C1243.79 59.9098 1271.6 75.4574 1297.4 93.836C1303.69 98.2942 1309.86 102.928 1315.91 107.737C1323.47 113.74 1330.82 119.991 1337.92 126.477C1340.72 129.027 1343.49 131.614 1346.22 134.236C1346.09 134.017 1346.06 133.892 1346.15 133.892C1346.42 133.892 1347.6 134.928 1348.84 136.226C1349.18 136.517 1349.62 136.993 1350.13 137.642C1350.75 138.433 1351.05 138.838 1351 138.891C1351.7 139.588 1352.41 140.288 1353.11 140.99C1353.09 140.926 1353.1 140.892 1353.15 140.892C1353.16 140.892 1353.16 140.894 1353.17 140.896C1353.18 140.894 1353.18 140.892 1353.19 140.892C1353.44 140.893 1354.33 141.642 1355.24 142.608C1355.48 142.855 1355.74 143.118 1356 143.392C1357.2 144.665 1358 145.722 1357.89 145.872C1360.2 148.265 1362.47 150.684 1364.72 153.129C1369.88 158.704 1374.93 164.445 1379.87 170.352C1380.46 171.062 1381.96 172.99 1383.94 175.586C1383.95 175.606 1383.97 175.625 1383.98 175.645C1390.76 184.104 1397.24 192.834 1403.38 201.816C1411.09 212.828 1417.4 222.772 1423.89 234.631C1429.12 243.773 1433.76 252.739 1437.76 261.412C1439.55 265.147 1441.01 268.372 1441.93 270.711C1442.38 271.848 1443.11 273.594 1443.97 275.566C1445.56 279.062 1447.22 282.733 1448.94 286.603C1450.09 289.126 1451.34 291.932 1452.37 294.301C1454.78 299.753 1457.33 305.574 1460.05 311.813C1460.73 313.322 1461.29 314.62 1461.64 315.456C1462.41 317.235 1463.2 319.046 1464 320.892C1465.7 324.794 1469.55 333.609 1474.7 345.371C1476.45 349.282 1478.54 354.004 1480.46 358.41C1488.13 375.793 1496.27 394.282 1504.54 413.156C1540.16 494.427 1569.44 560.784 1569.61 560.616C1569.75 560.448 1586.2 521.204 1610.07 464.151C1610.09 464.074 1610.12 463.983 1610.15 463.882C1610.45 463.033 1611.13 461.38 1611.93 459.631C1612.05 459.36 1612.24 458.944 1612.47 458.401C1619.75 441.007 1627.66 422.085 1635.97 402.203C1636.15 401.759 1636.33 401.322 1636.51 400.892C1638.87 395.117 1642.45 386.567 1644.45 381.892C1644.53 381.709 1644.61 381.523 1644.69 381.337C1652.62 362.362 1660.27 344.052 1667.46 326.861C1667.91 325.786 1668.31 324.79 1668.68 323.892C1669.83 321.077 1671.89 316.124 1674.11 310.827C1681.85 292.187 1694.17 262.794 1704 239.424C1704.02 239.074 1704.88 236.936 1705.94 234.631C1707 232.3 1710.38 224.346 1713.45 216.959C1716.17 210.411 1718.6 204.77 1719.28 203.412C1719.35 203.249 1719.4 203.16 1719.41 203.147C1719.41 203.145 1719.42 203.143 1719.42 203.141C1719.42 203.137 1719.42 203.135 1719.42 203.134C1719.43 203.13 1719.43 203.127 1719.44 203.123C1719.44 203.117 1719.45 203.112 1719.45 203.108C1719.5 203.054 1719.64 203.073 1719.86 203.161C1720.59 203.413 1722.1 204.361 1723.7 205.615C1724.81 206.479 1729.23 209.936 1735.5 214.845C1736.24 215.416 1736.92 215.943 1737.5 216.392C1754.22 229.241 1769.23 241.008 1781.01 250.439C1795.78 261.996 1807.63 271.259 1807.75 271.355C1807.75 271.357 1807.74 271.388 1807.71 271.447L1807.86 271.559L1807.88 271.577L1806.34 275.061L1803.56 281.476C1801.19 286.929 1797.85 294.44 1796.13 298.166C1796.12 298.19 1796.11 298.214 1796.1 298.238C1795.11 300.474 1794.09 302.786 1793.05 305.146C1793.02 305.236 1793 305.295 1793 305.317C1793 305.562 1791.28 309.432 1787.52 317.667C1780.88 332.706 1774.33 347.503 1771.08 354.791C1770.31 356.541 1769.74 357.823 1769.49 358.392C1769.26 358.912 1768.72 360.099 1767.98 361.749C1766.81 364.395 1765.15 368.162 1763.74 371.392C1761.81 375.792 1759.11 381.867 1757.73 384.892C1757.63 385.123 1757.52 385.373 1757.4 385.639C1755.1 390.823 1752.76 396.13 1750.36 401.549C1750.18 401.946 1750.01 402.344 1749.83 402.742C1749.04 404.548 1748.19 406.481 1747.4 408.234C1737.62 430.339 1727.06 454.168 1716.07 478.973L1690.69 536.25C1690.45 536.798 1690.23 537.298 1690.03 537.746C1688.97 540.189 1687.46 543.578 1686.02 546.775L1679.95 560.482C1679.66 561.291 1678.21 564.571 1675.35 570.848L1651.86 623.854C1651.58 624.5 1651.3 625.135 1651.04 625.746C1649.97 628.188 1648.46 631.573 1647.02 634.769L1640.93 648.523C1640.59 649.456 1638.98 653.085 1636.33 658.899L1624.15 686.392L1622.69 686.398L1517.5 686.903L1517.42 686.729L1422.66 478.973C1422.02 477.6 1421.34 476.133 1420.59 474.527C1418.21 469.42 1416.24 465.06 1416.02 464.426C1363.97 350.375 1331.62 280.418 1324.44 266.349C1324.04 265.651 1323.66 265.007 1323.29 264.403C1321.9 262.298 1320.4 260.137 1318.81 257.932C1317.24 255.844 1315.65 253.774 1314.04 251.722C1303.68 238.781 1289.99 224.153 1276.97 212.068C1270.54 206.243 1263.88 200.672 1257.02 195.365C1252.69 192.09 1247.29 188.167 1242.15 184.522C1224.71 172.596 1205.96 162.016 1187.73 153.897C1170.22 146.096 1152.43 139.831 1134.51 135.08C1125.21 132.646 1115.79 130.574 1106.32 128.89C1087.47 125.6 1068.29 123.898 1049 123.898C1040.81 123.898 1032.68 124.201 1024.61 124.804C1005.93 126.283 987.293 129.359 969.229 133.937C936.192 142.454 904.42 156.328 874.984 175.43C874.059 176.042 873.068 176.697 872 177.405C859.13 185.942 847.94 194.598 836.331 205.102C830.271 210.67 823.749 217.039 817.661 223.314C816.771 224.24 815.888 225.168 815.015 226.093C809.404 232.107 803.977 238.297 798.961 244.421C794.443 250.026 790.126 255.766 786.015 261.631C768.205 287.303 754.345 315.002 744.647 344.28C742.599 350.53 740.717 356.897 738.999 363.392C738.514 365.224 738.048 367.057 737.597 368.892C737.214 370.45 736.842 372.009 736.483 373.569C736.461 373.667 736.438 373.764 736.416 373.861C735.842 376.37 735.299 378.881 734.787 381.395C734.773 381.466 734.758 381.537 734.743 381.608C733.551 387.482 732.53 393.368 731.675 399.261C726.567 435.141 727.668 472.712 734.97 508.901C736.425 516.114 738.132 523.243 740.076 530.28C750.175 566.501 766.649 600.86 788.856 631.691C796.691 642.551 805.191 652.909 814.29 662.708C815.003 663.469 815.725 664.235 816.456 665.004C816.899 665.278 817.714 666.022 818.5 666.892C819.009 667.454 819.411 667.964 819.646 668.328C820.24 668.941 820.837 669.551 821.434 670.159C823.009 671.752 824.602 673.329 826.21 674.889C826.533 674.863 827.21 675.472 828.128 676.642C828.23 676.771 828.322 676.891 828.406 677C835.549 683.8 843 690.278 850.737 696.408C850.948 696.575 851.159 696.741 851.37 696.907C851.786 697.235 852.204 697.562 852.622 697.888C852.989 698.174 853.356 698.46 853.724 698.744C855.452 700.081 857.195 701.4 858.95 702.702C859.571 703.162 860.193 703.621 860.817 704.077C861.136 704.31 861.456 704.543 861.775 704.774C862.246 705.116 862.718 705.456 863.19 705.795C863.615 706.099 864.041 706.403 864.467 706.705C864.485 706.718 864.503 706.731 864.521 706.743C867.336 708.708 870.221 710.686 873 712.544C874.003 713.215 875.011 713.878 876.021 714.536C890.803 724.097 906.404 732.476 922.684 739.531C935.263 744.972 948.14 749.576 961.227 753.332C972.416 756.506 983.95 759.123 995.928 761.224C1004.17 762.62 1012.47 763.69 1020.8 764.432C1021.22 764.469 1021.64 764.505 1022.06 764.54C1027.82 764.891 1034.5 765.128 1041.35 765.243C1043.47 765.267 1045.69 765.28 1048 765.282C1062.7 765.298 1076.2 764.593 1089.2 763.06C1092.46 762.642 1095.72 762.174 1098.98 761.654C1109.65 759.878 1119.86 757.718 1129.73 755.148C1135.51 753.611 1141.27 751.904 1146.99 750.025L1154.57 747.534L1161.56 745.176L1163.89 748.607L1165.05 750.301C1167.39 753.719 1171.09 758.819 1174.61 763.525C1175.16 764.236 1175.72 764.949 1176.28 765.664C1181.46 772.233 1187.21 778.961 1193.25 785.54C1193.71 786.047 1194.18 786.554 1194.65 787.059C1198.02 790.693 1201.47 794.273 1204.96 797.75C1209.95 802.729 1215.02 807.494 1220.01 811.893C1220.73 812.516 1221.45 813.141 1222.18 813.764C1223.39 814.808 1224.61 815.85 1225.84 816.886C1226.13 817.128 1226.42 817.371 1226.71 817.609C1227.39 818.173 1228.07 818.729 1228.75 819.275C1233.07 822.754 1236.89 825.907 1239.07 827.781L1241.44 829.667L1241.42 829.675L1241.5 829.736L1239.41 830.706C1236.86 832.113 1231.46 834.567 1224.81 837.402C1223.41 838.02 1222.02 838.632 1220.62 839.234C1209.91 843.893 1199.06 848.099 1188.1 851.855C1187.88 851.929 1187.67 852.001 1187.46 852.074C1186.1 852.55 1184.82 852.991 1183.62 853.386C1183.29 853.497 1182.95 853.606 1182.62 853.716C1167.63 858.696 1152.67 862.755 1137.55 865.932C1137.42 865.96 1137.28 865.989 1137.15 866.018C1137.01 866.047 1136.86 866.077 1136.72 866.107C1123.88 868.797 1111.01 870.836 1097.88 872.253C1093.81 872.725 1089.73 873.142 1085.62 873.506C1083.75 873.672 1081.88 873.828 1080 873.971C1079.46 874.012 1078.89 874.051 1078.3 874.089C1077.12 874.164 1075.84 874.232 1074.48 874.293C1073.8 874.323 1073.09 874.352 1072.37 874.379C1069.49 874.486 1066.31 874.564 1062.93 874.615C1061.03 874.644 1059.06 874.663 1057.04 874.675C1052.21 874.741 1047.32 874.735 1042.37 874.658C1042.24 874.656 1042.11 874.654 1041.98 874.652C1040.99 874.636 1039.99 874.618 1039 874.597C1037.91 874.573 1036.84 874.547 1035.77 874.519C1035.72 874.517 1035.67 874.515 1035.62 874.514C1033.79 874.476 1031.99 874.433 1030.21 874.385C1027.53 874.311 1024.93 874.225 1022.44 874.127C1021.61 874.094 1020.8 874.06 1020 874.024C1018.4 873.954 1016.86 873.877 1015.39 873.796C1013.18 873.674 1011.14 873.542 1009.31 873.398C1007.48 873.253 1005.86 873.098 1004.5 872.933C1001.72 872.596 998.963 872.241 996.229 871.87C995.819 871.823 995.409 871.779 995 871.73C979.527 869.877 964.565 867.052 947.416 862.911C939.264 860.943 931.188 858.734 923.196 856.292C923.158 856.28 923.12 856.268 923.081 856.256C917.664 854.614 912.31 852.872 907.005 851.022C877.873 840.958 850.479 827.865 824.122 811.474C823.899 811.336 823.675 811.2 823.452 811.063C808.629 801.892 794.366 791.823 780.755 780.918C780.706 780.879 780.659 780.84 780.61 780.801C770.129 772.478 760.18 763.793 750.948 754.887C750.945 754.888 750.942 754.892 750.938 754.892C750.727 754.892 748.981 753.308 746.708 751.086C746.196 750.598 745.63 750.039 745.053 749.445C744.87 749.263 744.685 749.079 744.5 748.892C741.234 745.592 738.788 742.892 739.063 742.892C739.07 742.892 739.078 742.894 739.087 742.897C737.408 741.116 735.76 739.328 734.145 737.536C733.883 737.254 733.621 736.973 733.36 736.69C731.101 734.238 728.869 731.757 726.665 729.25C726.114 728.623 725.565 727.995 725.018 727.364C723.626 725.815 722.693 724.775 722.464 724.524C722.246 724.286 721.645 723.575 720.787 722.543C718.212 719.446 713.311 713.453 709.411 708.619C707.917 706.767 706.038 704.285 703.94 701.409C702.682 699.684 701.344 697.816 699.964 695.857C699.504 695.205 699.039 694.541 698.571 693.87C697.635 692.528 696.685 691.152 695.731 689.759C693.348 686.276 690.946 682.68 688.689 679.209C687.826 677.881 686.973 676.548 686.126 675.214C685.003 673.446 683.893 671.673 682.799 669.896C682.348 669.181 681.906 668.48 681.476 667.788C677.517 661.425 674.339 655.884 670.809 649.212C670.609 648.834 670.41 648.451 670.207 648.065C660.648 630.322 652.438 612.089 645.552 593.295C640.287 579.008 635.812 564.435 632.096 549.452C627.251 529.956 623.689 509.79 621.345 488.732C621.107 486.599 620.895 484.217 620.705 481.639C619.565 467.665 619.232 451.015 619.647 434.317C619.769 423.276 620.153 413.176 620.816 406.392C620.837 406.183 620.858 405.974 620.879 405.765C620.896 405.563 620.911 405.363 620.928 405.164C621.056 403.654 621.193 402.226 621.34 400.892C621.77 396.981 622.247 393.092 622.768 389.226C623.035 387.057 623.317 384.942 623.615 382.892C624.767 374.971 626.217 366.846 627.925 358.652C629.936 348.789 632.264 339.072 634.908 329.498C639.617 312.328 645.294 295.774 651.876 280.077C653.015 277.335 654.173 274.648 655.348 272.022C656.9 268.495 658.5 264.988 660.15 261.501C660.909 259.822 661.57 258.348 661.985 257.392C662.183 256.937 662.396 256.461 662.623 255.965C662.851 255.469 663.093 254.953 663.349 254.419C663.86 253.351 664.426 252.209 665.04 251.003C665.962 249.194 666.992 247.24 668.112 245.177C668.486 244.489 668.869 243.789 669.262 243.078L670.465 240.913C671.875 238.394 673.385 235.76 674.963 233.062C679.243 225.549 683.768 218.133 688.54 210.811C689.175 209.836 689.814 208.863 690.458 207.892C691.1 206.924 691.746 205.959 692.395 204.997C692.478 204.873 692.563 204.75 692.646 204.626C696.319 199.086 699.798 194.091 702.76 190.182C705.917 186.015 709.4 181.392 710.5 179.909C710.538 179.857 710.577 179.805 710.616 179.753C717.971 169.862 727.823 158.6 739.084 147.067C739.905 146.203 740.717 145.357 741.514 144.532L740.5 145.392L742.405 143.142C743.976 141.286 744.788 140.604 744.963 141.006C745.299 140.666 745.636 140.329 745.971 139.992L745.5 140.392L747.405 138.142C748.453 136.905 749.465 135.892 749.655 135.892C749.839 135.892 749.948 135.934 749.983 136.022C758.776 127.444 767.724 119.549 780.5 109.012C786.03 104.45 793.473 98.9094 801.599 93.2373C802.057 92.9129 802.514 92.5882 802.974 92.2657C806.275 89.873 809.045 87.8949 810.5 86.9141C820.987 79.8462 832.125 73.132 843.713 66.8623C852.15 62.2318 860.787 57.8823 869.588 53.8252C892.826 43.053 917.023 34.3646 941.891 27.9209C966.729 21.48 992.23 17.2823 1018.1 15.4981C1018.31 15.4836 1018.52 15.4712 1018.73 15.4571C1019.54 15.4022 1020.36 15.347 1021.17 15.2969C1023.32 15.1638 1025.48 15.048 1027.64 14.9483Z" fill="#0083CB"/>
<path d="M1554.75 0.418002C1563.01 -0.0565552 1579.51 -0.106242 1595.11 0.164096C1596.48 0.187313 1597.85 0.213062 1599.2 0.241244C1610.62 0.472141 1620.99 0.871688 1626.59 1.40335C1627.31 1.47212 1628.04 1.54362 1628.76 1.61624L1628.94 1.63382C1628.97 1.6368 1629 1.63962 1629.03 1.64261C1629.53 1.69252 1630.03 1.7444 1630.53 1.79593C1630.68 1.81058 1630.82 1.82509 1630.96 1.83988C1661.39 4.99616 1690.42 11.1569 1718.88 20.5596C1727.26 23.2878 1735.59 26.2768 1743.83 29.5235C1745.56 30.2041 1747.52 31.0145 1749.64 31.9209C1751.67 32.7778 1753.82 33.7175 1756.06 34.7119C1765.37 38.7354 1774.54 43.0843 1783.54 47.75C1787.91 49.9616 1791.62 51.9332 1794.1 53.3916C1794.39 53.5655 1794.7 53.7428 1795.01 53.9258C1798.07 55.6328 1801.1 57.3781 1804.12 59.1592C1804.44 59.3385 1804.73 59.5063 1805 59.6543C1805.59 59.978 1806.25 60.366 1807 60.8086C1810.12 62.6379 1813.79 64.9545 1817.79 67.5957C1828.23 74.3162 1838.36 81.4925 1848.13 89.1065C1851.04 91.3773 1853.92 93.6823 1856.77 96.0186C1860.03 98.6262 1863.03 101.112 1865.63 103.381C1868.37 105.765 1871.2 108.314 1874.09 110.997C1885.43 121.333 1896.18 132.209 1906.29 143.577C1909.88 147.554 1913.33 151.528 1916.68 155.559C1917.31 156.308 1917.95 157.061 1918.58 157.817C1919.12 158.452 1919.65 159.085 1920.18 159.717C1925.66 166.287 1931.78 174.586 1938 183.733C1939.19 185.448 1940.38 187.188 1941.57 188.957C1942.22 189.912 1942.86 190.869 1943.5 191.828C1944.09 192.706 1944.66 193.562 1945.21 194.392C1951.8 204.361 1957.99 214.715 1963.74 225.38C1966.25 229.993 1968.66 234.642 1970.98 239.331C1972.85 243.043 1974.57 246.62 1976.1 250.006C1976.28 250.404 1976.45 250.804 1976.63 251.202C1982.15 263.295 1987.09 275.645 1991.46 288.275C1999.18 310.321 2004.91 332.304 2008.77 354.804C2008.88 355.461 2008.99 356.118 2009.11 356.775C2010.88 366.831 2012.08 374.892 2012.89 383.127C2013.08 384.927 2013.25 386.921 2013.41 389.078C2013.57 391.289 2013.71 393.547 2013.83 395.892C2015.24 415.729 2015.31 436.551 2014.11 456.963C2014.11 457.073 2014.1 457.183 2014.1 457.292C2013.92 462.368 2013.67 466.988 2013.32 471.445C2013.29 471.888 2013.25 472.323 2013.21 472.751C2013.19 473.007 2013.17 473.262 2013.15 473.517C2013.1 474.136 2013.04 474.738 2012.99 475.322C2012.07 485.141 2010.62 494.57 2008.38 506.892C2008.19 507.899 2008 508.905 2007.81 509.911C2007.53 511.413 2007.25 512.904 2006.95 514.383C2006.82 515.03 2006.69 515.674 2006.56 516.317C2004.5 526.629 2002.05 536.829 1999.2 546.967C1997.16 554.232 1994.95 561.351 1992.52 568.432C1988.94 578.949 1984.91 589.435 1980.42 599.943C1979.24 602.706 1977.71 606.039 1975.95 609.706C1970.39 621.821 1964.24 633.682 1957.52 645.289C1956.67 646.784 1955.81 648.263 1954.94 649.734C1953.31 652.567 1951.83 655.019 1950.6 656.922C1946.86 662.954 1942.94 668.892 1938.7 674.949C1933.91 681.848 1928.94 688.592 1923.78 695.172C1921.71 697.854 1919.83 700.209 1917.61 702.903C1916.57 704.154 1915.47 705.478 1914.24 706.94C1912.37 709.158 1910.2 711.697 1907.55 714.787C1906.18 716.387 1904.25 718.483 1901.94 720.906C1890.21 733.703 1877.68 745.808 1864.4 757.128C1863.15 758.226 1862.01 759.208 1861 760.046C1858.61 762.031 1856.12 764.044 1853.58 766.065C1848.16 770.422 1842.61 774.647 1836.84 778.817C1834.98 780.165 1833.12 781.496 1831.25 782.81C1823.44 788.344 1815.93 793.327 1809.61 797.129C1807.85 798.227 1806.75 798.892 1806.64 798.892C1806.63 798.892 1806.61 798.897 1806.59 798.905C1806.56 798.922 1806.53 798.94 1806.5 798.957C1806.36 799.038 1806.22 799.117 1806.08 799.197C1795.07 805.826 1783.81 811.921 1772.3 817.485C1769.02 819.09 1765.8 820.593 1762.51 822.065C1755.24 825.35 1747.87 828.427 1740.4 831.299C1726.96 836.515 1713.23 841.055 1699.26 844.885C1684.93 848.864 1670.63 851.993 1656.05 854.331C1650.63 855.242 1645.59 856 1640.66 856.635C1638.45 856.938 1636.23 857.227 1634 857.501C1628.02 858.237 1619.02 858.816 1609.1 859.199C1605.86 859.331 1602.48 859.439 1598.89 859.529C1597.91 859.557 1596.93 859.582 1595.94 859.604C1594.75 859.63 1593.57 859.65 1592.4 859.668C1592.21 859.671 1592.02 859.673 1591.83 859.676C1590.75 859.691 1589.68 859.703 1588.61 859.711C1587.96 859.716 1587.3 859.718 1586.65 859.721C1586.55 859.721 1586.44 859.722 1586.34 859.723C1585.23 859.727 1584.12 859.73 1583.02 859.726C1572.58 859.745 1563.1 859.513 1557 858.979C1553.35 858.659 1549.69 858.285 1546.03 857.858C1538.81 857.113 1531.69 856.136 1524.54 854.907C1522.13 854.499 1519.72 854.061 1517.3 853.597C1517.1 853.557 1516.89 853.517 1516.68 853.477C1516.5 853.443 1516.33 853.41 1516.16 853.376C1502.37 850.702 1488.55 847.135 1474.22 842.591C1468.62 840.835 1463.02 838.943 1457.44 836.919C1455.8 836.332 1454.16 835.733 1452.5 835.121C1449.02 833.837 1445.2 832.313 1441.14 830.617C1439.5 829.944 1437.87 829.26 1436.23 828.565C1424.25 823.52 1412.26 817.805 1400.37 811.481C1389.15 805.691 1379.2 800.08 1373 795.859C1372.51 795.528 1371.46 794.834 1370.05 793.909C1365.29 790.919 1360.57 787.836 1355.88 784.664C1346.78 778.604 1337.5 771.851 1328.25 764.584C1327.16 763.739 1326.08 762.889 1325 762.034C1321.87 759.554 1318.71 756.977 1315.55 754.324C1305.4 745.883 1295.54 737.02 1286 727.767C1285.66 727.435 1285.31 727.104 1284.97 726.772C1284.8 727.164 1283.7 726.131 1279.96 722.142L1275.5 717.392L1276.34 718.181C1255.98 697.442 1237.41 675.032 1221.18 651.392C1217.6 646.215 1214.22 641.095 1210.88 635.705C1210.5 635.101 1210.12 634.497 1209.75 633.892C1209.25 633.095 1208.77 632.309 1208.29 631.531C1206.15 628.103 1204.39 625.196 1203.42 623.392C1203.33 623.23 1203.19 622.973 1203 622.631C1201.55 620.107 1199.09 615.822 1196.75 611.766C1196.23 610.871 1195.48 609.426 1194.53 607.524C1190.9 600.813 1187.14 592.773 1176.69 569.068C1167.37 548.611 1156.17 522.955 1141.74 489.4C1139.58 484.489 1137.34 479.384 1135.01 474.076C1133.09 469.844 1130.66 464.314 1129 460.392C1128.97 460.312 1128.93 460.232 1128.9 460.15C1127.59 457.124 1126.05 453.561 1124.9 451.071C1123.55 448.123 1122.41 445.498 1122.09 444.633C1090.15 371.834 1063.66 311.729 1058.91 301.299C1058.45 300.286 1058.2 299.737 1058.17 299.705C1058.16 299.702 1058.16 299.701 1058.16 299.699C1057.45 300.153 1023.81 379.703 983.111 477.197C963.68 523.743 945.856 566.348 932.457 598.302C923.495 619.992 916.407 636.954 912.217 646.764C910.558 650.754 909.058 654.168 908.357 655.556C908.216 655.848 908.115 656.039 908.057 656.127C908.047 656.145 908.044 656.158 908.04 656.162C908.039 656.164 908.035 656.162 908.033 656.163C908.032 656.165 908.032 656.167 908.03 656.169C908.014 656.188 907.993 656.202 907.969 656.215C907.533 656.566 905.558 655.526 903.455 653.843C903.279 653.709 903.1 653.571 902.922 653.429C901.947 652.653 900.199 651.274 898.012 649.551C894.044 646.436 888.05 641.741 880.949 636.185C876.254 632.529 872.606 629.68 872 629.187C871.982 629.172 871.96 629.155 871.935 629.135C855.247 616.273 837.03 602.037 827.411 594.264C825.923 593.092 824.649 592.085 823.617 591.269L823.25 591.01C823.026 590.855 822.808 590.697 822.597 590.538C821.942 590.047 821.358 589.551 820.91 589.113C820.741 588.975 820.638 588.89 820.606 588.859C820.543 588.799 820.49 588.719 820.446 588.624C820.163 588.296 820 588.031 820 587.868C820 587.865 820.001 587.862 820.001 587.858C820.001 587.856 820 587.853 820 587.851C820 587.73 820.101 587.391 820.296 586.847C820.366 586.648 820.449 586.423 820.542 586.175C820.661 585.71 820.823 585.211 821.027 584.697C821.14 584.415 821.599 583.349 822.338 581.652C824.836 575.583 828.883 566.269 832.2 559.088C832.943 557.416 833.712 555.683 834.512 553.892C834.975 552.853 835.452 551.782 835.93 550.711C835.975 550.589 836 550.513 836 550.486C836 550.221 837.763 546.244 841.738 537.545C848.457 522.321 854.993 507.547 858.169 500.432C858.814 498.969 859.285 497.898 859.512 497.392C859.756 496.845 860.341 495.543 861.157 493.725C862.266 491.214 863.734 487.865 864.965 485.036C866.497 481.515 868.954 476.03 870.804 471.983C872.132 468.984 873.535 465.817 874.988 462.536C874.995 462.513 875 462.496 875 462.486C875 462.217 876.806 458.146 880.884 449.227C881.351 448.171 881.817 447.122 882.278 446.08C889.302 430.181 896.943 412.908 905.212 394.239C906.135 392.144 907.142 389.87 908.061 387.809C909.198 385.242 910.345 382.65 911.505 380.032L1002.05 175.716L1003.29 172.874H1003.31L1110.11 173.392L1110.58 174.436L1110.63 174.563L1291.55 581.391C1292.94 584.164 1294.07 586.138 1295.1 587.626L1304.12 598.078C1307.21 601.662 1310.36 605.204 1313.56 608.703C1315.27 610.56 1316.99 612.409 1318.73 614.248C1319.6 615.155 1320.48 616.066 1321.36 616.979C1321.84 617.266 1322.92 618.241 1324 619.392C1324.74 620.18 1325.33 620.889 1325.64 621.348C1327.82 623.541 1330.02 625.736 1332.25 627.921C1332.66 628.102 1333.83 629.143 1335 630.392C1335.48 630.905 1335.9 631.384 1336.22 631.782C1337.64 633.152 1339.06 634.512 1340.49 635.86C1365.59 659.343 1393.34 680.641 1421.4 697.974C1440.02 709.395 1458.97 719.201 1477.8 727.103C1506.48 739.056 1534.05 746.404 1561.32 749.307C1574.47 750.685 1587.57 751.051 1600.69 750.419C1603.12 750.298 1605.56 750.144 1608 749.952C1617.02 749.244 1625.9 748.199 1634.66 746.822C1662.64 742.388 1689.48 734.48 1714.74 723.324C1718.32 721.732 1721.91 720.065 1725.5 718.322C1725.83 718.16 1726.17 717.996 1726.5 717.832C1749.62 706.398 1771.48 692.035 1792 674.772C1794.23 672.893 1796.44 670.98 1798.62 669.038C1803.23 664.901 1807.73 660.632 1812.11 656.239C1818.08 650.22 1823.86 643.936 1829.43 637.392C1833.21 632.943 1836.86 628.419 1840.37 623.822C1854.3 605.486 1866.28 585.661 1876.04 564.844C1878.05 560.532 1879.96 556.17 1881.79 551.762C1882.45 550.144 1883.1 548.521 1883.73 546.892C1885.02 543.569 1886.2 540.449 1887.29 537.472C1896.75 511.086 1902.83 483.197 1905.04 454.375C1905.38 447.501 1905.48 439.658 1905.47 429.392C1905.46 425.984 1905.45 422.827 1905.41 419.867C1905.28 413.009 1905.03 406.435 1904.69 400.846C1904.46 398.327 1904.2 395.814 1903.92 393.306C1898.55 346.775 1882.95 301.72 1857.81 261.016C1849.67 247.916 1840.6 235.374 1830.67 223.543C1830.49 223.328 1830.31 223.114 1830.13 222.899C1830 222.755 1829.87 222.609 1829.74 222.463C1816.66 207.797 1794.3 186.011 1783 177.277C1773.39 169.853 1763.54 163.02 1753.45 156.782C1752.83 156.395 1752.2 156.01 1751.57 155.627C1736.28 146.56 1719.39 138.07 1703.36 131.47C1702.88 131.276 1702.39 131.081 1701.91 130.89C1682.58 123.274 1662.58 117.586 1641.96 113.856C1641.23 113.725 1640.5 113.597 1639.77 113.47C1634.8 112.62 1629.78 111.893 1624.74 111.285C1612.32 109.966 1599.18 109.421 1584 109.458C1575.68 109.478 1569.47 109.54 1564.37 109.696C1563.39 109.76 1562.41 109.826 1561.43 109.898C1551.7 110.614 1542.05 111.748 1532.6 113.291C1531.88 113.408 1531.17 113.527 1530.45 113.649C1520.47 115.446 1511.02 117.522 1502.93 119.697C1502.25 119.882 1501.58 120.069 1500.9 120.259C1499.55 120.64 1498.2 121.031 1496.87 121.432C1492.64 122.698 1489.06 123.65 1488.56 123.652C1488.55 123.652 1488.54 123.651 1488.54 123.65C1488.5 123.652 1488.47 123.649 1488.47 123.64C1488.46 123.633 1488.45 123.617 1488.44 123.596C1488.43 123.595 1488.42 123.593 1488.42 123.589C1488.37 123.53 1487.75 122.532 1486.8 121.009C1485.71 119.326 1484.2 116.986 1482.55 114.436C1482.15 113.812 1481.74 113.186 1481.33 112.558C1480.68 111.571 1480 110.563 1479.3 109.536C1477.27 106.637 1474.87 103.283 1472.47 99.9776C1472.44 99.9299 1472.4 99.8817 1472.37 99.834C1465.07 90.0626 1456.7 80.0644 1447.83 70.501C1438.78 61.1265 1427.69 50.2831 1421.19 44.6621C1419.88 43.5324 1418.66 42.4336 1417.57 41.417C1417 40.9218 1416.47 40.4347 1415.98 39.9688C1415.43 39.4816 1414.94 39.0471 1414.56 38.6953L1411.59 35.9991L1414.04 35.0176C1414.08 35.0017 1414.12 34.9836 1414.17 34.9659C1416.57 33.7536 1421.53 31.7651 1427.74 29.4512C1428.87 29.0254 1430.04 28.5915 1431.25 28.1475C1435.08 26.6886 1438.97 25.2748 1442.91 23.9092C1447.57 22.2459 1452.03 20.7122 1455.66 19.5489C1459.98 18.1658 1464.36 16.8491 1468.8 15.5967C1471.46 14.8036 1473.89 14.1104 1476 13.5537C1480.21 12.4411 1484.95 11.3185 1490.01 10.2207C1497.39 8.55231 1504.89 7.05938 1512.5 5.74417C1525.95 3.33115 1539.24 1.58337 1552 0.590854C1552.81 0.527602 1553.74 0.470472 1554.75 0.418002Z" fill="#0083CB"/>
</svg>
